<svg width="24" height="24" viewBox="0 0 24 24" fill="none" xmlns="http://www.w3.org/2000/svg">
<path d="M19.0203 4.97522C17.6313 3.58682 15.8618 2.64148 13.9355 2.25875C12.0092 1.87602 10.0127 2.07308 8.19838 2.82502C6.38409 3.57696 4.83352 4.85 3.74274 6.48317C2.65195 8.11634 2.06994 10.0363 2.07031 12.0002C2.07031 14.6343 3.11635 17.1605 4.97844 19.0236C6.84053 20.8866 9.36625 21.9339 12.0003 21.9352C13.3038 21.9353 14.5946 21.6805 15.8003 21.1852C17.0019 20.6777 18.095 19.9445 19.0203 19.0252C19.943 18.1027 20.6748 17.0076 21.1742 15.8022C21.6735 14.5968 21.9305 13.3049 21.9305 12.0002C21.9305 10.6955 21.6735 9.40361 21.1742 8.19825C20.6748 6.99289 19.943 5.8977 19.0203 4.97522ZM18.3203 18.3152C16.8904 19.7514 15.0141 20.6578 13.0003 20.8852V14.3252H14.8803C15.1455 14.3252 15.3999 14.2199 15.5874 14.0323C15.775 13.8448 15.8803 13.5904 15.8803 13.3252C15.8803 13.06 15.775 12.8057 15.5874 12.6181C15.3999 12.4306 15.1455 12.3252 14.8803 12.3252H13.0003V9.58522C13.0003 9.32001 13.1057 9.06565 13.2932 8.87812C13.4807 8.69058 13.7351 8.58522 14.0003 8.58522H15.2003C15.4655 8.58522 15.7199 8.47987 15.9074 8.29233C16.095 8.10479 16.2003 7.85044 16.2003 7.58522C16.2003 7.32001 16.095 7.06565 15.9074 6.87812C15.7199 6.69058 15.4655 6.58522 15.2003 6.58522H13.5003C12.8373 6.58522 12.2014 6.84862 11.7325 7.31746C11.2637 7.7863 11.0003 8.42218 11.0003 9.08522V12.3252H9.13031C8.8651 12.3252 8.61074 12.4306 8.42321 12.6181C8.23567 12.8057 8.13031 13.06 8.13031 13.3252C8.13031 13.5904 8.23567 13.8448 8.42321 14.0323C8.61074 14.2199 8.8651 14.3252 9.13031 14.3252H11.0003V20.8852C9.1432 20.6733 7.39959 19.8834 6.01576 18.6269C4.63193 17.3704 3.67783 15.7109 3.28821 13.8828C2.8986 12.0547 3.09317 10.1504 3.84444 8.43888C4.59572 6.72735 5.86572 5.2951 7.47506 4.34444C9.08441 3.39378 10.9518 2.97276 12.8133 3.14084C14.6749 3.30892 16.4366 4.05762 17.8497 5.28117C19.2627 6.50472 20.2556 8.14128 20.6882 9.9597C21.1207 11.7781 20.9711 13.6865 20.2603 15.4152C19.8068 16.498 19.148 17.4827 18.3203 18.3152Z" fill="#313131"/>
</svg>
