<svg width="24.000000" height="24.000000" viewBox="0 0 24 24" fill="none" xmlns="http://www.w3.org/2000/svg" xmlns:xlink="http://www.w3.org/1999/xlink">
	<desc>
			Created with Pixso.
	</desc>
	<defs>
		<clipPath id="clip2_139">
			<rect id="icon" rx="0.000000" width="23.000000" height="23.000000" transform="translate(0.500000 0.500000)" fill="white" fill-opacity="0"/>
		</clipPath>
	</defs>
	<rect id="icon" rx="0.000000" width="23.000000" height="23.000000" transform="translate(0.500000 0.500000)" fill="#FFFFFF" fill-opacity="0"/>
	<g clip-path="url(#clip2_139)">
		<path id="Vector" d="M3.56 4.06C3.42 4.06 3.3 4.01 3.2 3.91C3.11 3.82 3.06 3.69 3.06 3.56C3.06 3.43 3.11 3.3 3.2 3.2C3.3 3.11 3.42 3.06 3.56 3.06L20.43 3.06C20.56 3.06 20.69 3.11 20.79 3.2C20.88 3.3 20.93 3.42 20.93 3.56C20.93 3.69 20.88 3.82 20.79 3.91C20.69 4 20.56 4.06 20.43 4.06L3.56 4.06ZM3.56 12.5C3.42 12.5 3.3 12.44 3.2 12.35C3.11 12.26 3.06 12.13 3.06 12C3.06 11.86 3.11 11.74 3.2 11.64C3.3 11.55 3.42 11.5 3.56 11.5L20.43 11.49C20.56 11.49 20.69 11.55 20.79 11.64C20.88 11.73 20.93 11.86 20.93 11.99C20.93 12.13 20.88 12.25 20.79 12.35C20.69 12.44 20.56 12.49 20.43 12.49L3.56 12.5ZM3.56 20.93C3.42 20.93 3.3 20.88 3.2 20.79C3.11 20.69 3.06 20.57 3.06 20.43C3.06 20.3 3.11 20.17 3.2 20.08C3.3 19.99 3.42 19.93 3.56 19.93L20.43 19.93C20.56 19.93 20.69 19.98 20.79 20.08C20.88 20.17 20.93 20.3 20.93 20.43C20.93 20.56 20.88 20.69 20.79 20.79C20.69 20.88 20.56 20.93 20.43 20.93L3.56 20.93Z" fill="#FFFFFF" fill-opacity="1.000000" fill-rule="nonzero"/>
	</g>
</svg>
