<svg width="24" height="24" viewBox="0 0 24 24" fill="none" xmlns="http://www.w3.org/2000/svg">
<path d="M18.4365 20.937H5.5625C4.89946 20.937 4.26357 20.6736 3.79473 20.2048C3.32589 19.7359 3.0625 19.1 3.0625 18.437V5.56299C3.0625 4.89995 3.32589 4.26406 3.79473 3.79522C4.26357 3.32638 4.89946 3.06299 5.5625 3.06299H18.4365C19.0995 3.06299 19.7354 3.32638 20.2043 3.79522C20.6731 4.26406 20.9365 4.89995 20.9365 5.56299V18.437C20.9365 19.1 20.6731 19.7359 20.2043 20.2048C19.7354 20.6736 19.0995 20.937 18.4365 20.937ZM5.5625 4.06299C5.16468 4.06299 4.78314 4.22102 4.50184 4.50233C4.22054 4.78363 4.0625 5.16516 4.0625 5.56299V18.437C4.0625 18.8348 4.22054 19.2163 4.50184 19.4976C4.78314 19.779 5.16468 19.937 5.5625 19.937H18.4365C18.8343 19.937 19.2159 19.779 19.4972 19.4976C19.7785 19.2163 19.9365 18.8348 19.9365 18.437V5.56299C19.9365 5.16516 19.7785 4.78363 19.4972 4.50233C19.2159 4.22102 18.8343 4.06299 18.4365 4.06299H5.5625Z" fill="#313131"/>
<path d="M12.0002 16.5938C11.0915 16.5928 10.2036 16.3225 9.44857 15.8169C8.69357 15.3114 8.10539 14.5933 7.7584 13.7535C7.41141 12.9138 7.32119 11.99 7.49913 11.0989C7.67708 10.2079 8.1152 9.38962 8.75812 8.74754C9.40104 8.10545 10.2199 7.6684 11.1112 7.49162C12.0024 7.31483 12.9261 7.40627 13.7654 7.75435C14.6048 8.10243 15.322 8.69154 15.8266 9.44721C16.3312 10.2029 16.6004 11.0912 16.6002 11.9998C16.5986 13.2188 16.1132 14.3873 15.2507 15.2486C14.3882 16.11 13.2191 16.5938 12.0002 16.5938ZM12.0002 8.39981C11.2896 8.4008 10.5952 8.61235 10.0048 9.00776C9.41434 9.40316 8.95434 9.96467 8.68286 10.6214C8.41138 11.2781 8.34061 12.0005 8.47948 12.6974C8.61836 13.3943 8.96064 14.0344 9.46311 14.5369C9.96558 15.0393 10.6057 15.3816 11.3026 15.5205C11.9995 15.6594 12.7219 15.5886 13.3786 15.3171C14.0353 15.0456 14.5968 14.5856 14.9922 13.9952C15.3876 13.4048 15.5992 12.7104 15.6002 11.9998C15.6002 11.045 15.2209 10.1294 14.5457 9.45422C13.8706 8.77909 12.9549 8.39981 12.0002 8.39981Z" fill="#313131"/>
<path d="M17.2 7.90488C17.7937 7.90488 18.275 7.42359 18.275 6.82988C18.275 6.23618 17.7937 5.75488 17.2 5.75488C16.6063 5.75488 16.125 6.23618 16.125 6.82988C16.125 7.42359 16.6063 7.90488 17.2 7.90488Z" fill="#313131"/>
</svg>
