<svg width="40" height="40" viewBox="0 0 40 40" fill="none" xmlns="http://www.w3.org/2000/svg">
<path fill-rule="evenodd" clip-rule="evenodd" d="M15.7118 7.59673C9.43679 11.6267 5.95068 16.3176 5.25346 21.6692C4.16763 30.0001 11.6176 34.0776 15.3926 30.4142C19.1676 26.7509 16.9051 22.1001 14.1718 20.8284C11.4385 19.5567 9.76679 20.0001 10.0585 18.3009C10.3501 16.6017 14.2385 11.8926 17.6551 9.69922C17.776 9.59616 17.8531 9.45091 17.8708 9.29302C17.8884 9.13513 17.8453 8.97644 17.7501 8.84923L16.9051 7.75006C16.5385 7.27339 16.1868 7.29172 15.7118 7.59589M32.2335 7.59673C25.9585 11.6267 22.4723 16.3176 21.7751 21.6692C20.6885 30.0001 28.1385 34.0776 31.9135 30.4142C35.6885 26.7509 33.426 22.1001 30.6918 20.8284C27.9576 19.5567 26.2868 20.0001 26.5785 18.3009C26.8701 16.6017 30.7593 11.8926 34.176 9.69922C34.2967 9.59604 34.3737 9.45074 34.3912 9.29285C34.4087 9.13497 34.3654 8.97634 34.2701 8.84923L33.426 7.75006C33.0593 7.27339 32.7076 7.29172 32.2335 7.59589" fill="#EFDCAB"/>
</svg>
