<svg width="24" height="24" viewBox="0 0 24 24" fill="none" xmlns="http://www.w3.org/2000/svg">
<path d="M21.4508 7.5H9.99078C9.88021 7.07176 9.63081 6.69225 9.2816 6.42084C8.93239 6.14944 8.50306 6.00144 8.06078 6H7.06078C6.6185 6.00144 6.18917 6.14944 5.83996 6.42084C5.49075 6.69225 5.24135 7.07176 5.13078 7.5H2.55078C2.41817 7.5 2.291 7.55268 2.19723 7.64645C2.10346 7.74021 2.05078 7.86739 2.05078 8C2.05334 8.13181 2.10684 8.2575 2.20006 8.35072C2.29328 8.44394 2.41897 8.49744 2.55078 8.5H5.13078C5.24135 8.92824 5.49075 9.30775 5.83996 9.57916C6.18917 9.85056 6.6185 9.99856 7.06078 10H8.06078C8.50306 9.99856 8.93239 9.85056 9.2816 9.57916C9.63081 9.30775 9.88021 8.92824 9.99078 8.5H21.4508C21.5834 8.5 21.7106 8.44732 21.8043 8.35355C21.8981 8.25979 21.9508 8.13261 21.9508 8C21.9508 7.86739 21.8981 7.74021 21.8043 7.64645C21.7106 7.55268 21.5834 7.5 21.4508 7.5ZM8.06078 9H7.06078C6.79946 8.99853 6.54896 8.89542 6.36232 8.71251C6.17567 8.5296 6.06753 8.28124 6.06078 8.02V8C6.06078 7.73478 6.16614 7.48043 6.35367 7.29289C6.54121 7.10536 6.79557 7 7.06078 7H8.06078C8.326 7 8.58035 7.10536 8.76789 7.29289C8.95542 7.48043 9.06078 7.73478 9.06078 8C9.06078 8.26522 8.95542 8.51957 8.76789 8.70711C8.58035 8.89464 8.326 9 8.06078 9ZM21.4508 15.5H18.8708C18.7602 15.0718 18.5108 14.6923 18.1616 14.4208C17.8124 14.1494 17.3831 14.0014 16.9408 14H15.9408C15.4985 14.0014 15.0692 14.1494 14.72 14.4208C14.3707 14.6923 14.1213 15.0718 14.0108 15.5H2.55078C2.41817 15.5 2.291 15.5527 2.19723 15.6464C2.10346 15.7402 2.05078 15.8674 2.05078 16C2.05078 16.1326 2.10346 16.2598 2.19723 16.3536C2.291 16.4473 2.41817 16.5 2.55078 16.5H14.0108C14.1213 16.9282 14.3707 17.3077 14.72 17.5792C15.0692 17.8506 15.4985 17.9986 15.9408 18H16.9408C17.3831 17.9986 17.8124 17.8506 18.1616 17.5792C18.5108 17.3077 18.7602 16.9282 18.8708 16.5H21.4508C21.5834 16.5 21.7106 16.4473 21.8043 16.3536C21.8981 16.2598 21.9508 16.1326 21.9508 16C21.9482 15.8682 21.8947 15.7425 21.8015 15.6493C21.7083 15.5561 21.5826 15.5026 21.4508 15.5ZM17.9408 16C17.9408 16.2652 17.8354 16.5196 17.6479 16.7071C17.4604 16.8946 17.206 17 16.9408 17H15.9408C15.6756 17 15.4212 16.8946 15.2337 16.7071C15.0461 16.5196 14.9408 16.2652 14.9408 16C14.9408 15.7348 15.0461 15.4804 15.2337 15.2929C15.4212 15.1054 15.6756 15 15.9408 15H16.9408C17.2021 15.0015 17.4526 15.1046 17.6392 15.2875C17.8259 15.4704 17.934 15.7188 17.9408 15.98V16Z" fill="#313131"/>
</svg>
