<svg width="50" height="70" viewBox="0 0 50 70" fill="none" xmlns="http://www.w3.org/2000/svg">
<path d="M22.9538 0.0620799C21.7477 0.124164 21.4978 0.167623 21.504 0.298C21.504 0.353876 21.5665 0.949885 21.6415 1.61419C21.7727 2.73791 21.7915 2.82483 21.904 2.82483C21.9727 2.82483 22.6289 2.8 23.36 2.76895L24.6848 2.71308L24.6723 1.37206L24.6535 0.0310378L24.2474 0.0248294C24.0224 0.018621 23.4412 0.0372462 22.9538 0.0620799Z" fill="white"/>
<path d="M25.248 1.36585V2.73171L25.7042 2.73792C25.9479 2.73792 26.5791 2.76275 27.0915 2.78758C27.6102 2.81862 28.0351 2.83104 28.0476 2.82483C28.0539 2.81862 28.1039 2.32195 28.1539 1.73215C28.2039 1.13614 28.2601 0.55255 28.2788 0.428381L28.3163 0.204878L27.8914 0.161419C27.6602 0.142794 27.0478 0.111752 26.5291 0.0869181C26.0167 0.0682926 25.5168 0.0434589 25.423 0.0310421L25.248 0V1.36585Z" fill="white"/>
<path d="M16.4369 1.17339C15.0683 1.55211 14.4934 1.75699 14.5246 1.8439C14.5434 1.88736 14.6871 2.34679 14.8496 2.86829C15.0058 3.3898 15.1495 3.8306 15.162 3.84302C15.1683 3.84922 15.6495 3.74989 16.2306 3.6133C16.8056 3.47672 17.4492 3.32772 17.6554 3.29047C17.8616 3.24701 18.0491 3.20355 18.0679 3.19113C18.1054 3.17251 17.9054 2.26608 17.6492 1.31619C17.5617 0.993349 17.5242 0.931265 17.4117 0.937474C17.343 0.937474 16.8993 1.04302 16.4369 1.17339Z" fill="white"/>
<path d="M32.0595 1.53347C31.9908 1.86872 31.8783 2.37781 31.8158 2.66961C31.7471 2.96141 31.7033 3.20353 31.7096 3.21595C31.7221 3.22216 32.0908 3.29666 32.5345 3.38358C32.9781 3.4705 33.6343 3.6195 33.9967 3.71883C34.3529 3.81817 34.6529 3.89888 34.6529 3.89267C34.6591 3.88025 35.1903 2.08602 35.2528 1.86872C35.2715 1.80043 35.1278 1.72593 34.7466 1.60176C34.1967 1.41551 32.397 0.931251 32.2657 0.931251C32.2282 0.931251 32.1408 1.192 32.0595 1.53347Z" fill="white"/>
<path d="M21.9663 3.55123C21.4851 3.58228 21.0727 3.62573 21.0477 3.65057C21.0289 3.6754 21.0352 3.90511 21.0664 4.15966C21.0976 4.4142 21.1414 4.87363 21.1601 5.17163L21.2039 5.72418L21.5538 5.68693C21.985 5.63726 24.1659 5.52551 24.3409 5.54414C24.4596 5.55655 24.4659 5.5131 24.4846 4.51354L24.4971 3.47673L23.6723 3.48294C23.2161 3.48915 22.4474 3.52019 21.9663 3.55123Z" fill="white"/>
<path d="M25.5598 4.15345C25.5598 4.51975 25.541 4.99159 25.5223 5.19647L25.4785 5.56897L26.8158 5.60622C27.5532 5.63106 28.3093 5.6621 28.5031 5.68693L28.853 5.72418L28.928 4.9295C28.9655 4.48871 29.0155 4.02928 29.0342 3.90511C29.0717 3.68161 29.0717 3.6754 28.8343 3.63815C28.4531 3.57607 26.7783 3.47673 26.1409 3.47673H25.5598V4.15345Z" fill="white"/>
<path d="M19.4679 3.73128C17.8681 4.01066 17.6244 4.06033 17.5494 4.10379C17.4869 4.14104 17.5244 4.36454 17.7119 5.13439C17.8431 5.67452 17.9618 6.12152 17.9681 6.12773C17.9743 6.14015 18.4618 6.05944 19.0554 5.96011C19.6491 5.85456 20.2115 5.77385 20.3052 5.77385C20.399 5.77385 20.4927 5.76144 20.5115 5.74281C20.5302 5.72419 20.4927 5.44481 20.4302 5.12197C20.3677 4.79292 20.299 4.36454 20.274 4.15966C20.2115 3.60711 20.2053 3.6009 19.4679 3.73128Z" fill="white"/>
<path d="M29.8093 3.70645C29.8093 3.78716 29.5656 5.41998 29.5219 5.62486L29.4844 5.81732L30.2593 5.89182C30.6779 5.93528 31.2404 6.00978 31.4966 6.05945C32.1027 6.1712 32.1215 6.1712 32.1215 6.00357C32.1215 5.92907 32.2215 5.48827 32.334 5.02885C32.4464 4.56942 32.5152 4.16588 32.4902 4.13483C32.4339 4.07275 32.159 4.01066 30.9654 3.8182C29.9531 3.65058 29.8093 3.63816 29.8093 3.70645Z" fill="white"/>
<path d="M3.93898 3.81817C3.93898 3.88646 4.15145 4.68114 4.25768 5.01019C4.32642 5.22748 4.37017 5.42615 4.34517 5.4634C4.32642 5.49445 4.22644 5.52549 4.12645 5.52549H3.95148L4.03272 5.80487C4.22019 6.41329 4.39516 6.66163 4.8326 6.94722C5.06381 7.09622 5.24504 7.2266 5.23879 7.23281C5.22629 7.24522 5.03882 7.22039 4.82635 7.18935C4.60763 7.1583 4.41391 7.14589 4.39516 7.16451C4.37642 7.18314 4.5014 7.35697 4.66387 7.54944C4.93883 7.87227 5.12006 8.02128 5.86369 8.58624C5.98868 8.67937 6.27613 8.84079 6.5011 8.94633C6.72607 9.05187 7.08851 9.2195 7.30723 9.31884C7.62593 9.46784 7.71967 9.49267 7.76341 9.42438C7.80091 9.3685 7.80715 9.38713 7.78216 9.48026C7.74466 9.61684 7.79466 9.65409 7.95713 9.62926C7.98213 9.62305 8.06962 9.6603 8.1446 9.71618C8.49455 9.9583 8.45706 9.83414 7.8634 8.64833C7.10101 7.14589 6.38862 6.26429 6.18865 6.58092C6.1574 6.6368 6.08241 6.6368 5.90119 6.58713C5.76371 6.54988 5.56374 6.51884 5.44501 6.51884C5.32627 6.51884 5.25129 6.50021 5.27628 6.46917C5.30128 6.44434 5.53249 6.42571 5.78871 6.4195C6.03867 6.4195 6.26363 6.40088 6.28863 6.37604C6.30738 6.35742 6.01992 6.04079 5.65123 5.6807C4.82635 4.88602 5.02007 4.93569 5.91994 5.7552L6.56359 6.33879L6.5261 6.04079C6.5011 5.87937 6.41986 5.53791 6.33862 5.28957C6.16365 4.76806 6.15115 4.67493 6.29488 4.92948C6.40736 5.14057 6.62608 5.87316 6.62608 6.0532C6.63233 6.22704 6.83855 6.63059 7.08226 6.92859L7.29473 7.18314L7.39472 6.50642C7.45096 6.13391 7.52595 5.78624 7.56344 5.72416C7.61343 5.64966 7.62593 5.64966 7.60718 5.71174C7.59469 5.76141 7.54469 6.14633 7.4947 6.5623L7.41346 7.32593L8.00088 8.48691C8.31958 9.13258 8.59454 9.61684 8.60704 9.57338C8.64453 9.47405 8.73827 9.48026 8.76326 9.5858C8.78826 9.69755 9.65688 8.61108 9.84435 8.22615C9.92559 8.05232 10.0631 7.64877 10.1506 7.32593C10.263 6.89755 10.3068 6.79822 10.3068 6.95343C10.313 7.19555 10.0881 8.07094 9.99433 8.15786C9.92559 8.23236 9.91934 8.50553 9.98808 8.50553C10.0131 8.50553 10.1256 8.35032 10.238 8.16407C10.3505 7.97782 10.4755 7.82261 10.5068 7.82261C10.5442 7.82261 10.5005 7.91573 10.4193 8.02128C10.1318 8.41241 10.1506 8.45587 10.5442 8.28824C10.7317 8.20132 10.9317 8.13303 10.9817 8.13303C11.0317 8.13303 11.0504 8.10819 11.0317 8.07094C11.0129 8.03369 11.0379 8.02748 11.0879 8.04611C11.1442 8.06473 11.1879 8.08957 11.1879 8.10198C11.1879 8.10819 10.8879 8.2634 10.5255 8.44345C9.81936 8.78491 9.45066 9.10154 9.02572 9.71618L8.81325 10.0266L8.98198 10.0638C9.08821 10.0887 9.10696 10.1073 9.03822 10.1135C8.96948 10.1197 8.93824 10.1508 8.95698 10.2066C9.00698 10.3308 8.93199 10.3805 8.832 10.2936C8.70702 10.188 8.63203 10.3308 8.62578 10.6785C8.61953 10.8337 8.60704 11.0386 8.59454 11.1441C8.58204 11.2434 8.5383 11.5415 8.50705 11.796C8.43206 12.3485 8.28208 13.0936 8.22584 13.1432C8.2071 13.1681 8.18835 13.0874 8.1821 12.9694C8.1821 12.7831 8.16335 12.808 8.04462 13.1619C7.96963 13.3854 7.88214 13.5592 7.85715 13.5468C7.83215 13.5406 7.70092 13.6647 7.56969 13.8262C7.43846 13.9876 7.25099 14.1925 7.15725 14.2794L6.97603 14.4346L7.11976 14.2297C7.19475 14.1242 7.27598 14.031 7.30098 14.031C7.32598 14.031 7.41346 13.9317 7.4947 13.8137C7.57594 13.6958 7.70717 13.5281 7.78841 13.4412C7.93214 13.2922 7.99463 13.1184 7.89464 13.1743C7.8634 13.1929 7.71967 13.255 7.56344 13.3233C7.40721 13.3854 7.1635 13.4971 7.01977 13.5716C6.87604 13.6399 6.76981 13.6772 6.79481 13.6399C6.81355 13.6089 6.93229 13.5344 7.05727 13.4785C7.40097 13.3233 7.98213 12.9135 8.08211 12.7645C8.17585 12.6279 8.28208 12.2306 8.23209 12.2306C8.21334 12.2306 7.89464 12.3858 7.52595 12.5845C7.15725 12.7769 6.87604 12.9011 6.90104 12.8576C6.92604 12.8204 7.08851 12.7086 7.26349 12.6155C8.23209 12.094 8.21959 12.1064 8.30083 11.7215C8.34457 11.5415 8.39457 11.1565 8.41331 10.8647C8.45081 10.3805 8.44456 10.3432 8.35082 10.4239C8.22584 10.5295 8.21959 10.4301 8.34457 10.2687C8.39457 10.2066 8.43831 10.1259 8.43831 10.0949C8.43831 10.0018 6.88854 10.2315 6.36362 10.4053C6.00117 10.5233 5.66372 10.8896 5.33252 11.529C5.20129 11.7774 5.07631 11.9823 5.05132 11.9823C4.97008 11.9823 5.40126 11.1752 5.62623 10.8958C5.73246 10.7592 5.79495 10.6412 5.75121 10.6288C5.67622 10.604 5.14505 10.8647 4.76386 11.1255C4.58264 11.2497 4.4514 11.4111 4.36392 11.5973C4.1452 12.0878 3.85149 12.659 3.83275 12.6403C3.80775 12.6217 4.02647 12.063 4.17645 11.7339C4.23269 11.616 4.28893 11.4918 4.30143 11.467C4.38266 11.2931 4.01397 11.6408 3.78275 11.9512C3.52029 12.3051 2.98912 12.8576 3.09536 12.6652C3.17035 12.5286 3.87649 11.6097 4.05146 11.4173C4.19519 11.2559 4.19519 11.2434 4.08271 11.1814C3.98272 11.1255 3.98897 11.1193 4.1327 11.1131C4.31393 11.1131 5.18879 10.7033 5.18879 10.6164C5.18879 10.5543 4.75136 10.6102 4.64513 10.6909C4.60763 10.7219 4.42641 10.7592 4.23894 10.7716C4.05771 10.784 3.77026 10.8399 3.59528 10.8896C3.42656 10.9392 3.27658 10.9765 3.26408 10.9641C3.23909 10.933 3.70152 10.7654 4.05146 10.6785C4.19519 10.6412 4.30143 10.5916 4.28893 10.5605C4.27018 10.5357 4.36392 10.5109 4.4889 10.5046C5.11381 10.4798 6.51985 10.1197 5.99493 10.1197C5.76371 10.1197 4.49515 9.69755 4.70762 9.68513C4.73261 9.68513 5.03257 9.76584 5.37627 9.86518C5.71372 9.97072 6.1324 10.0576 6.29488 10.0638C6.58234 10.0701 8.06962 9.93968 8.11961 9.89622C8.1571 9.86518 7.97588 9.71618 7.87589 9.70997C7.75716 9.69755 7.48845 9.60442 6.06366 9.09533C4.73261 8.61108 4.56389 8.57383 4.56389 8.71662C4.56389 8.79112 4.5014 8.81595 4.32017 8.81595C3.95773 8.81595 3.68277 8.93391 3.40156 9.21329C3.25783 9.35609 3.05786 9.52992 2.94538 9.61063C2.72666 9.77205 2.74541 9.90243 2.98287 9.84655C3.23909 9.77826 3.25783 9.87139 3.03287 10.1073C2.91413 10.2315 2.81415 10.3743 2.81415 10.4177C2.81415 10.4612 2.70791 10.6102 2.57668 10.7592C2.32047 11.0324 2.00177 11.5352 2.00177 11.6594C2.00177 11.7091 2.108 11.7215 2.31422 11.7091C2.4892 11.6967 2.62668 11.7029 2.62668 11.7153C2.62668 11.7339 2.55794 11.8332 2.47045 11.9326C2.38296 12.0381 2.25798 12.2244 2.19549 12.3485C2.06426 12.6155 1.72056 13.9007 1.77055 13.9503C1.7893 13.9689 1.89554 13.9503 2.00802 13.9131C2.1205 13.8758 2.35172 13.8448 2.52669 13.8448C2.72666 13.8448 2.94538 13.7951 3.09536 13.7206C3.23284 13.6523 3.38281 13.6089 3.42031 13.6275C3.54529 13.6709 3.77651 13.5654 4.02647 13.3481L4.25143 13.1494V13.3109C4.25143 13.3978 4.27018 13.4723 4.28893 13.4723C4.30768 13.4723 4.5139 13.3605 4.73886 13.2301C5.15755 12.988 5.61998 12.5472 6.09491 11.9388C6.26363 11.7277 6.55109 11.4856 6.95728 11.2248C7.29473 11.0075 7.69467 10.7406 7.84465 10.6288C8.1696 10.3991 8.1696 10.3991 8.1696 10.5233C8.1696 10.5729 8.1571 10.604 8.1446 10.5978C8.09461 10.5481 6.78856 11.914 6.66982 12.1375C6.5136 12.4541 6.18865 13.3978 6.18865 13.553C6.18865 13.6337 6.21989 13.6585 6.28238 13.6337C6.40736 13.5902 6.40736 13.5964 6.1574 14.0497C5.91369 14.4905 5.88869 14.5836 6.04492 14.4594C6.10741 14.4097 6.1324 14.4035 6.10741 14.447C6.08241 14.4842 6.09491 14.5401 6.1324 14.5587C6.17615 14.5898 6.1824 14.7388 6.15115 15.0058L6.10741 15.4093L6.25739 15.3658C6.33862 15.341 6.50735 15.2541 6.62608 15.1734C6.74481 15.0927 6.88854 15.0244 6.93853 15.0244C6.99478 15.0244 7.06976 14.9933 7.11351 14.9499C7.16975 14.894 7.1885 14.894 7.1885 14.9499C7.1885 14.9933 7.1635 15.0244 7.12601 15.0244C7.09476 15.0244 7.08226 15.0616 7.10101 15.1113C7.14475 15.2168 7.41346 15.1548 7.66968 14.9747C7.76966 14.9064 7.90089 14.8381 7.97588 14.8133C8.04462 14.7947 8.26334 14.6208 8.46331 14.4346C8.65703 14.2483 8.8445 14.0931 8.87575 14.0931C8.95073 14.0931 9.33818 13.4909 9.46941 13.1867C9.71937 12.5845 9.63813 11.9326 9.1882 11.0448C9.04447 10.7716 8.94449 10.5233 8.96323 10.5046C8.98823 10.486 9.31943 10.784 9.70687 11.1689C10.2318 11.6967 10.5068 11.9202 10.8255 12.0816C11.0567 12.1995 11.2691 12.2927 11.2879 12.2927C11.3691 12.2927 11.2504 11.4607 11.1379 11.2434C10.9942 10.9703 10.4068 10.5543 9.89434 10.3743C9.69437 10.2998 9.48815 10.2253 9.43816 10.2004C9.38817 10.1818 9.30068 10.1694 9.25069 10.1756C9.16945 10.188 9.16945 10.1756 9.24444 10.1259C9.29443 10.0949 9.36317 10.0763 9.40067 10.0887C9.43816 10.1011 9.56939 10.1259 9.68812 10.1383C9.80686 10.1508 10.1631 10.2253 10.4693 10.2936C11.5004 10.5233 11.6941 10.5543 12.2252 10.5543C12.6064 10.5543 12.8564 10.5171 13.1126 10.4239C13.3063 10.3556 13.6875 10.2191 13.95 10.1321C14.2187 10.039 14.4374 9.93347 14.4374 9.89001C14.4374 9.79068 14.1125 9.31884 13.925 9.145C13.7438 8.97116 13.3063 8.81595 13.0189 8.81595C12.7377 8.81595 12.7752 8.95875 13.0689 9.00842C13.3563 9.05808 13.825 9.26917 13.9312 9.39955C14.0062 9.48646 14 9.49888 13.8812 9.49888C13.8063 9.49888 13.5126 9.61063 13.2251 9.74722C12.7252 9.98935 12.3627 10.0576 12.2815 9.93347C12.2627 9.90243 12.4127 9.79068 12.6252 9.68513C13.1501 9.42438 13.1126 9.35609 12.4877 9.39334C11.8316 9.4368 10.7567 9.53613 10.313 9.59822C10.1256 9.61684 9.98808 9.61684 10.0131 9.59201C10.0381 9.56717 10.288 9.45542 10.563 9.33746C11.3066 9.03946 11.4504 8.94012 11.6753 8.56762C11.8815 8.21994 11.9253 7.90952 11.8378 7.4501C11.7816 7.18935 11.6566 7.1521 11.4504 7.33835C11.2879 7.49356 10.788 7.82261 10.7192 7.82261C10.7005 7.82261 10.7692 7.68602 10.8754 7.5246C10.9754 7.36318 11.0754 7.11485 11.0942 6.97826C11.1317 6.76097 11.1067 6.68026 10.8629 6.29533C10.3693 5.49445 10.2193 5.28336 10.1506 5.27715C10.1131 5.27715 10.0506 5.37028 10.0131 5.47582C9.97558 5.58757 9.80686 6.0532 9.63188 6.50642C9.45691 6.95963 9.23194 7.65498 9.12571 8.05853C9.01947 8.45587 8.90699 8.847 8.87575 8.9215C8.83825 9.01462 8.83825 9.06429 8.88199 9.06429C8.91324 9.06429 8.89449 9.145 8.832 9.25054C8.60704 9.63547 8.61328 9.49267 8.88199 8.12061C9.01947 7.40043 9.01947 6.76717 8.87575 6.2705C8.71952 5.74278 7.75091 4.41418 7.75091 4.73081C7.75091 4.78048 7.72592 4.76806 7.67592 4.70598C7.58219 4.59422 7.1635 4.2838 7.10726 4.2838C7.08226 4.2838 7.06352 4.40176 7.06352 4.54456C7.06352 4.8736 6.99478 5.27715 6.94478 5.27715C6.92604 5.27715 6.8448 5.15298 6.76356 5.01019C6.53859 4.58181 6.28863 4.32726 5.91369 4.1348L5.56999 3.94855L5.45126 4.09755C5.33877 4.23414 5.30753 4.24034 5.05756 4.17826C4.90759 4.14722 4.59513 4.04167 4.36392 3.95476C4.12645 3.86784 3.93898 3.80575 3.93898 3.81817ZM8.24459 7.27006C8.1696 7.63014 8.03212 7.93436 8.09461 7.60531C8.16335 7.25764 8.26959 6.88513 8.29458 6.90997C8.30708 6.92238 8.28208 7.0838 8.24459 7.27006ZM7.05727 7.73569C7.34472 7.85365 7.28848 7.88469 6.90729 7.8164C6.73856 7.78536 6.4636 7.74811 6.30113 7.72327C6.1324 7.70465 6.00117 7.6674 6.00117 7.64256C6.00117 7.56185 6.81355 7.63635 7.05727 7.73569ZM9.50065 9.65409C9.41317 9.70376 9.27569 9.74101 9.1882 9.74101C9.06322 9.74101 9.08821 9.72238 9.28193 9.65409C9.61314 9.54855 9.68812 9.54855 9.50065 9.65409ZM3.87649 11.1689C3.8265 11.2 3.68277 11.2372 3.56404 11.2621L3.34532 11.2993L3.56404 11.2124C3.82025 11.1069 4.03272 11.082 3.87649 11.1689ZM8.60704 12.4913C8.58829 12.541 8.56954 12.5224 8.56954 12.4541C8.56329 12.3858 8.58204 12.3485 8.60079 12.3734C8.61953 12.392 8.62578 12.4479 8.60704 12.4913ZM8.74451 12.9259C8.75076 12.957 8.72577 12.9756 8.68827 12.9756C8.65703 12.9756 8.62578 12.9011 8.63203 12.8018C8.63203 12.6528 8.63828 12.6466 8.68827 12.7583C8.71952 12.8266 8.74451 12.9011 8.74451 12.9259ZM8.76326 13.1929C8.78201 13.2736 8.76951 13.3295 8.74451 13.3109C8.68827 13.2798 8.66328 13.0377 8.71327 13.0377C8.72577 13.0377 8.75076 13.106 8.76326 13.1929ZM7.75091 14.0248C7.59469 14.2483 7.5072 14.2856 7.63843 14.0745C7.68842 14 7.75091 13.9007 7.77591 13.8572C7.80715 13.8137 7.8384 13.7889 7.85715 13.8075C7.87589 13.8262 7.8259 13.9255 7.75091 14.0248Z" fill="white"/>
<path d="M45.2079 3.9672C44.608 4.24658 44.558 4.259 44.558 4.07275C44.558 3.83683 44.4768 3.83683 44.1456 4.06654C43.9706 4.19071 43.7956 4.27142 43.7394 4.25279C43.6144 4.20933 43.2769 4.64392 43.0582 5.12197L42.9083 5.43239L42.8645 5.12197C42.8395 4.94813 42.802 4.66255 42.777 4.4825C42.752 4.30867 42.7145 4.15966 42.6958 4.15966C42.6021 4.15966 41.9959 4.67496 41.9959 4.74946C41.9959 4.80534 41.9584 4.82397 41.9022 4.79913C41.8084 4.76809 41.5585 4.93572 41.5585 5.03505C41.5585 5.05989 41.4585 5.22751 41.3397 5.41377C41.2148 5.59381 41.0773 5.8794 41.0273 6.04703C40.9086 6.43816 40.9086 7.25146 41.0273 8.00889C41.0773 8.33173 41.1148 8.77873 41.1148 9.00224L41.1085 9.40578L41.046 9.1264C41.0148 8.97119 40.9148 8.52419 40.8336 8.13306C40.7461 7.74193 40.5961 7.18317 40.4961 6.89137C40.2462 6.13394 39.8587 5.15301 39.815 5.15922C39.7587 5.15922 39.2338 5.86698 39.0526 6.18982C38.7776 6.66166 38.7839 6.94725 39.0901 7.66122C39.1338 7.76055 39.1213 7.76676 39.0213 7.71088C38.9588 7.67363 38.8026 7.54946 38.6901 7.4253C38.5714 7.30113 38.4214 7.20179 38.3652 7.20179C38.2152 7.20179 38.1027 7.58051 38.134 7.97164C38.184 8.5366 38.5901 8.95878 39.4025 9.30024C40.0149 9.56099 40.1462 9.59204 40.0899 9.4927C40.0587 9.44303 40.0962 9.46166 40.1649 9.52995C40.2337 9.59824 40.2649 9.66033 40.2399 9.67275C40.2087 9.68516 39.9712 9.64791 39.7025 9.59824C39.1651 9.4927 37.3591 9.29403 37.1966 9.32507C37.1279 9.33749 37.2216 9.44303 37.4966 9.65412L37.9028 9.96454L37.6715 9.98317C37.5216 9.99558 37.3091 9.93971 37.0154 9.80312C36.7842 9.69758 36.4967 9.57341 36.378 9.52995L36.1718 9.45545L36.3842 9.32507C36.4967 9.25678 36.7529 9.14503 36.9529 9.08915C37.1466 9.02707 37.3091 8.95257 37.3091 8.92774C37.3091 8.85323 36.7967 8.86565 36.553 8.94636C36.4342 8.98982 36.2467 9.08915 36.1343 9.16986C35.903 9.3437 35.5469 9.80312 35.5781 9.89004C35.5843 9.92108 35.7781 10.0204 35.9968 10.1011C37.4278 10.6413 38.0277 10.6909 39.3713 10.3929C39.6275 10.337 39.9524 10.2688 40.0899 10.2439C40.2274 10.2129 40.4086 10.1632 40.4961 10.1322C40.6711 10.0639 40.7086 10.0577 40.8336 10.0577C41.0273 10.0577 40.8273 9.76587 40.2462 9.18849C39.915 8.85944 39.49 8.48694 39.2963 8.36277C38.9713 8.15789 38.8089 8.00889 38.9089 8.00889C38.9338 8.00889 39.1338 8.12064 39.3525 8.26343C39.5775 8.40002 39.7712 8.50556 39.7837 8.49315C39.7962 8.47452 39.7525 8.3131 39.69 8.12685C39.5525 7.7233 39.4713 6.87275 39.5525 6.61199C39.6025 6.45057 39.6087 6.47541 39.615 6.81066C39.6212 7.29492 39.765 7.98405 39.9399 8.35035C40.1212 8.73527 40.9773 9.69758 41.1085 9.67275C41.1773 9.65412 41.2085 9.59204 41.2023 9.49891C41.196 9.41199 41.2085 9.38095 41.221 9.4182C41.2897 9.57962 41.3647 9.48649 41.7022 8.85944C41.8897 8.51177 42.1521 8.05235 42.2833 7.84126C42.977 6.73616 43.0582 6.59337 43.0207 6.48162C42.9957 6.3947 43.002 6.38849 43.0457 6.44436C43.1145 6.54991 43.3207 6.01598 43.4644 5.32064C43.5832 4.7743 43.6519 4.6998 43.5644 5.2213C43.5332 5.40756 43.4957 5.68694 43.4769 5.84836L43.4519 6.14015L44.1018 5.47585C44.933 4.6315 44.8267 4.87363 43.9206 5.90423C43.7206 6.12774 43.5582 6.33261 43.5582 6.36366C43.5582 6.38849 43.8456 6.3947 44.1956 6.38228C44.7455 6.36366 44.8017 6.36986 44.6455 6.43816C44.5455 6.47541 44.2393 6.51266 43.9581 6.51887C43.4957 6.51887 43.4457 6.53128 43.2957 6.68649C43.1207 6.86654 42.6833 7.56188 42.6833 7.6488C42.6833 7.67984 42.7333 7.67984 42.7958 7.6488C42.9395 7.5743 44.0018 7.4315 44.1518 7.46255C44.2206 7.48117 44.1393 7.51221 43.9643 7.53084C43.5394 7.59292 43.1395 7.68605 42.827 7.80401C42.6208 7.87851 42.5083 7.98405 42.2771 8.32552C42.1209 8.55523 41.9521 8.84082 41.9084 8.95257C41.8584 9.06432 41.7334 9.27541 41.6272 9.4182C41.521 9.5672 41.4335 9.69137 41.4335 9.70379C41.4335 9.71 41.5022 9.72862 41.5835 9.73483C41.6647 9.74104 41.9022 9.6355 42.1209 9.4927C42.3333 9.35612 42.8208 9.08915 43.202 8.89669C43.5894 8.71044 44.0893 8.41244 44.3205 8.24481C44.7517 7.93439 45.4829 7.16454 45.4141 7.10246C45.3954 7.08383 45.2329 7.09625 45.0579 7.1335C44.6392 7.22042 44.383 7.21421 44.6705 7.12108C45.0329 7.00933 45.4954 6.53749 45.7266 6.04082C45.8391 5.79869 45.9328 5.56898 45.9328 5.54414C45.9328 5.5131 45.8328 5.50068 45.7078 5.5131C45.5079 5.53793 45.4891 5.52552 45.5204 5.42618C45.5391 5.35789 45.5829 5.18405 45.6204 5.02884C45.6516 4.87363 45.7516 4.53217 45.8328 4.26521L45.9828 3.78716H45.7891C45.6766 3.78716 45.4204 3.86787 45.2079 3.9672ZM42.3646 7.01554C42.3646 7.23904 42.3396 7.47496 42.3146 7.54326C42.2833 7.61776 42.2646 7.47496 42.2708 7.17075C42.2708 6.89758 42.2584 6.53128 42.2271 6.36366L42.1834 6.05323L42.2771 6.33261C42.3271 6.48782 42.3646 6.79204 42.3646 7.01554ZM43.102 6.28295C43.0832 6.3264 43.0707 6.29536 43.0707 6.20844C43.0707 6.12153 43.0832 6.09048 43.102 6.12774C43.1145 6.17119 43.1145 6.2457 43.102 6.28295ZM41.7209 7.47496L41.7397 7.85368L41.6897 7.54326C41.6584 7.36942 41.6022 7.15213 41.5647 7.059C41.4647 6.79824 41.4835 6.70512 41.596 6.91621C41.6522 7.01554 41.7084 7.26388 41.7209 7.47496ZM41.9959 9.33749C41.9959 9.34991 41.9459 9.39958 41.8897 9.44303C41.7897 9.52374 41.7834 9.51754 41.8647 9.4182C41.9459 9.31887 41.9959 9.28782 41.9959 9.33749ZM41.7459 9.58583C41.7459 9.59824 41.7022 9.62929 41.6459 9.64791C41.596 9.66654 41.571 9.66033 41.5897 9.62308C41.6272 9.56099 41.7459 9.53616 41.7459 9.58583Z" fill="white"/>
<path d="M16.717 4.2031C15.7609 4.40798 15.3985 4.48869 15.386 4.50111C15.3547 4.53215 15.9421 6.4133 16.0046 6.4816C16.0296 6.51264 16.2921 6.4816 16.617 6.40089C16.9232 6.33259 17.2357 6.27051 17.3044 6.27051C17.3732 6.27051 17.4419 6.24568 17.4607 6.21463C17.4857 6.18359 17.3982 5.81109 17.2794 5.38891C17.1545 4.97295 17.042 4.51973 17.0232 4.38936C16.9857 4.15965 16.9607 4.14723 16.717 4.2031Z" fill="white"/>
<path d="M32.9892 4.48251C32.9517 4.63151 32.8392 5.04747 32.7392 5.41377C32.6392 5.77386 32.5517 6.10911 32.5455 6.15257C32.533 6.20845 32.7329 6.27674 33.1516 6.36987C33.4953 6.44437 33.7765 6.50024 33.7828 6.49404C33.7828 6.49404 33.9265 6.04703 34.1015 5.5131L34.4139 4.53838L34.2202 4.4763C33.9765 4.39559 33.2391 4.22175 33.1391 4.22175C33.0954 4.22175 33.0329 4.33971 32.9892 4.48251Z" fill="white"/>
<path d="M23.292 6.20223C23.2795 6.22085 23.2857 6.59957 23.2982 7.04657L23.3232 7.85367H24.973H26.6227V7.04036V6.22706L26.154 6.1836C25.5791 6.13393 23.317 6.14635 23.292 6.20223Z" fill="white"/>
<path d="M21.3739 6.28293C20.7552 6.3326 19.6929 6.48781 19.6554 6.53127C19.6366 6.54989 19.8678 8.14546 19.8928 8.17029C19.8991 8.1765 20.0303 8.16408 20.1865 8.13304C20.3428 8.102 20.9864 8.03371 21.6176 7.98404C22.255 7.92816 22.7862 7.87229 22.7987 7.85366C22.8112 7.84125 22.7924 7.58049 22.7549 7.28249C22.7174 6.98448 22.6674 6.61819 22.6487 6.46918L22.6174 6.20843L22.3237 6.21464C22.1613 6.22085 21.7363 6.25189 21.3739 6.28293Z" fill="white"/>
<path d="M27.2223 6.28294C27.2036 6.3264 27.1786 6.70512 27.1598 7.12108C27.1223 7.82884 27.1286 7.88472 27.2286 7.88472C27.416 7.88472 29.3158 8.07097 29.7469 8.13305C29.9657 8.1641 30.1594 8.18272 30.1719 8.1703C30.2094 8.12685 30.4531 6.58095 30.4281 6.54991C30.3843 6.51266 28.8846 6.34503 28.1534 6.30157C27.8097 6.28294 27.466 6.2519 27.3848 6.23328C27.3036 6.21465 27.2348 6.23948 27.2223 6.28294Z" fill="white"/>
<path d="M17.9982 6.73615C17.0921 6.88515 16.3234 7.04657 16.2672 7.09624C16.236 7.13349 16.6796 8.57384 16.7484 8.64834C16.7734 8.67318 16.9171 8.67318 17.0671 8.63593C17.3733 8.56763 18.1732 8.42484 18.8668 8.3193L19.323 8.24479L19.2917 7.98404C19.2293 7.55566 18.9918 6.58094 18.948 6.58714C18.9231 6.59335 18.4981 6.66165 17.9982 6.73615Z" fill="white"/>
<path d="M31.041 6.63061C30.9848 6.71753 30.741 8.15789 30.7723 8.22618C30.7848 8.26964 30.9473 8.31931 31.1347 8.34414C31.316 8.36897 31.8096 8.45589 32.2283 8.5366C33.1469 8.72285 33.1844 8.72285 33.1844 8.57385C33.1844 8.51177 33.2657 8.1703 33.3719 7.81642C33.4719 7.46254 33.5594 7.15212 33.5594 7.12729C33.5594 7.0652 33.2782 6.99691 32.1283 6.77341C31.0597 6.56232 31.0785 6.56232 31.041 6.63061Z" fill="white"/>
<path d="M22.4472 8.3255C21.1724 8.40621 19.7164 8.56763 18.4978 8.76009C17.4667 8.92771 16.8105 9.05809 16.8105 9.08913C16.8105 9.09534 16.8543 9.25055 16.9105 9.4306L17.0043 9.75964L17.2355 9.72239C19.1165 9.39335 21.5661 9.08913 23.0909 8.99601C25.7342 8.83459 29.7649 9.12018 32.327 9.66031C32.5644 9.70998 32.7894 9.74723 32.8394 9.74723C32.9206 9.74723 33.0956 9.14501 33.0331 9.07672C32.9894 9.03326 32.3207 8.90288 31.2459 8.72904C28.7713 8.3255 25.0968 8.15787 22.4472 8.3255Z" fill="white"/>
<path d="M44.9577 8.56141C44.8952 8.57383 44.789 8.61729 44.714 8.66075C44.5327 8.77871 42.9955 9.3623 42.6018 9.46163C42.2206 9.56097 41.8894 9.69755 41.7207 9.82172C41.6144 9.90243 41.7019 9.92106 42.5018 9.95831C42.9955 9.98314 43.5016 10.0142 43.6204 10.0266C43.7391 10.0328 43.9828 10.0018 44.1515 9.95831C44.3265 9.90864 44.6327 9.83414 44.8389 9.78447C45.0452 9.7348 45.2701 9.67893 45.3389 9.65409C45.4076 9.62926 45.3826 9.66651 45.2764 9.74101C45.1764 9.80931 44.8327 9.92727 44.514 10.008C44.1953 10.0825 43.9328 10.1632 43.9328 10.188C43.9328 10.2129 44.0828 10.2687 44.2578 10.3122C44.7577 10.4301 45.3514 10.7282 45.9013 11.1379C46.1637 11.3304 47.2198 12.3548 47.1636 12.3548C47.1386 12.3548 46.8636 12.1313 46.5512 11.8581C46.2325 11.5849 45.9638 11.3738 45.9513 11.38C45.9388 11.3925 46.0325 11.5911 46.1512 11.8208C46.27 12.0505 46.37 12.3175 46.3637 12.4044C46.3637 12.5596 46.3575 12.5596 46.2762 12.3486C46.07 11.7774 45.7826 11.349 45.4701 11.1131C45.1327 10.8647 44.8764 10.7282 44.6202 10.6474C44.4827 10.604 44.4952 10.6288 44.7202 10.8772C44.9577 11.1379 45.4639 12.0319 45.4076 12.094C45.3889 12.1064 45.2639 11.9078 45.1202 11.647C44.8264 11.1131 44.3515 10.5543 44.189 10.5543C44.1328 10.5543 44.0578 10.5295 44.0266 10.4984C43.8078 10.2936 41.9269 9.98935 41.6832 10.1197C41.5832 10.1756 41.5269 10.1694 41.4582 10.1135C41.352 10.0266 41.3457 10.0825 41.4457 10.2625C41.4832 10.337 41.5269 10.5543 41.5332 10.7406C41.5832 11.5725 41.6332 11.976 41.7019 12.063C41.7457 12.1126 42.1019 12.3051 42.508 12.4851C42.908 12.6714 43.2267 12.8266 43.2142 12.839C43.1954 12.8576 42.608 12.6341 42.2643 12.4727C42.1144 12.3982 41.9581 12.3361 41.9206 12.3299C41.8769 12.3237 41.8019 12.2989 41.7582 12.2678C41.6394 12.1933 41.7207 12.6093 41.9019 13.0129C42.0331 13.3046 42.3706 13.6399 42.4518 13.5592C42.4705 13.5406 42.608 13.6151 42.758 13.7268C42.908 13.8448 43.0392 13.9441 43.0517 13.9503C43.0642 13.9627 43.0642 13.9814 43.0455 14C43.0267 14.0186 42.9455 13.9814 42.8642 13.9193C42.783 13.851 42.6768 13.8137 42.633 13.8324C42.583 13.8448 42.4518 13.7641 42.3331 13.6523C42.2206 13.5406 42.1081 13.4661 42.0831 13.4847C42.0644 13.5033 42.1081 13.6399 42.1831 13.7765C42.2518 13.9193 42.3393 14.1117 42.3768 14.2049C42.4331 14.3539 42.4331 14.3663 42.3456 14.2794C42.2893 14.2235 42.1206 13.9007 41.9644 13.5654L41.6832 12.9446L41.6769 13.4412L41.6644 13.9379L41.6144 13.4723C41.5394 12.8018 41.4395 11.8829 41.3957 11.4545C41.352 11.0324 41.1582 10.2563 41.077 10.1756C41.0145 10.1135 40.7895 10.1694 40.0084 10.4301C39.3273 10.6599 38.8336 11.0137 38.7086 11.3614C38.6649 11.4794 38.6274 11.7401 38.6274 11.9326C38.6211 12.392 38.6774 12.392 39.3148 11.976C39.7522 11.6905 40.3896 11.1007 40.7333 10.6537C40.8333 10.5233 40.8958 10.4922 40.9395 10.5357C40.9895 10.5854 40.9645 10.7157 40.852 11.0013C40.5583 11.7339 40.4146 12.3548 40.4521 12.7397C40.4896 13.137 40.6333 13.5716 40.8458 13.9131C41.027 14.2049 41.8894 14.9747 42.1081 15.043C42.2018 15.074 42.3956 15.1548 42.5455 15.2168C42.8642 15.3596 42.958 15.3224 42.908 15.0803C42.8892 14.9871 42.8955 14.894 42.9205 14.8754C42.9455 14.8568 43.1579 14.9561 43.3892 15.0865C43.8766 15.3658 43.8641 15.3845 43.7204 14.6022C43.6454 14.149 43.6704 14.0435 43.7954 14.2918C43.8641 14.4284 43.8641 14.4222 43.8453 14.2483C43.8391 14.1428 43.8078 14.0186 43.7891 13.969C43.7641 13.9193 43.6766 13.5964 43.5891 13.2612C43.3017 12.1437 43.0267 11.6967 42.1581 10.9392C41.452 10.3308 41.9269 10.486 43.0642 11.2435C43.3954 11.4607 43.7516 11.7712 43.9703 12.0257C44.5452 12.6838 44.8139 12.9321 45.2014 13.1494C45.6201 13.3854 45.8388 13.4102 45.7763 13.2239C45.7138 13.0253 45.8513 13.0811 46.095 13.3481C46.22 13.4847 46.3762 13.5964 46.445 13.5964C46.5074 13.5964 46.6512 13.6399 46.7574 13.6958C46.8886 13.7641 47.0386 13.7827 47.2073 13.7641C47.3511 13.7454 47.5823 13.7579 47.7323 13.7951C47.876 13.8324 48.0135 13.8448 48.0322 13.8324C48.0947 13.7641 47.6698 12.3113 47.4886 12.0009C47.3886 11.8208 47.3073 11.6594 47.3073 11.6408C47.3073 11.6222 47.4136 11.6097 47.5448 11.6097C47.676 11.6097 47.801 11.5911 47.826 11.5725C47.8447 11.5539 47.7135 11.3304 47.5385 11.082C47.3573 10.8275 47.1636 10.5419 47.1011 10.4488C47.0449 10.3556 46.9261 10.1818 46.8386 10.0639C46.6324 9.78447 46.6387 9.74722 46.9011 9.79068C47.0261 9.80931 47.1199 9.79689 47.1199 9.76585C47.1199 9.62926 46.4012 9.04567 46.1263 8.95254C45.7763 8.84079 45.6826 8.7725 45.7201 8.66075C45.7451 8.59866 45.6638 8.57383 45.4139 8.5552C45.2264 8.549 45.0202 8.549 44.9577 8.56141ZM45.0202 9.59201C44.9952 9.64168 44.9514 9.68514 44.9202 9.68514C44.8827 9.68514 44.8889 9.64789 44.9327 9.59201C44.9764 9.54234 45.0202 9.49888 45.0327 9.49888C45.0452 9.49888 45.0389 9.54234 45.0202 9.59201ZM45.4764 10.5295C45.82 10.5667 46.5137 10.7468 46.47 10.784C46.4575 10.7964 46.2825 10.7778 46.0763 10.7406C45.8763 10.6971 45.6201 10.6723 45.5138 10.6723C45.4014 10.6785 45.3076 10.6537 45.3076 10.6164C45.3076 10.5854 45.2701 10.5543 45.2201 10.5543C45.1701 10.5543 45.1077 10.5233 45.0827 10.4798C45.0577 10.4364 45.0639 10.4301 45.1077 10.455C45.1514 10.4798 45.3139 10.5109 45.4764 10.5295ZM45.7763 12.9756C45.7951 13.0066 45.7826 13.0377 45.7513 13.0377C45.7138 13.0377 45.6826 13.0066 45.6826 12.9756C45.6826 12.9384 45.6951 12.9135 45.7076 12.9135C45.7263 12.9135 45.7576 12.9384 45.7763 12.9756Z" fill="white"/>
<path d="M23.8412 10.7778C23.7412 10.7902 23.3475 10.8337 22.9663 10.8647C22.1039 10.9517 21.1666 11.0758 19.998 11.2683C17.5296 11.6781 16.561 11.7588 14.4363 11.7215L12.7553 11.6967L12.6553 12.1064C12.5991 12.3299 12.4304 12.7645 12.2804 13.0749C11.3555 14.9809 9.61205 16.2723 7.14366 16.8931L6.5625 17.0421V30.5144C6.5625 39.1379 6.5875 44.2847 6.62499 44.8248C6.69373 45.7002 6.91245 46.8798 7.13117 47.5565C7.48736 48.6492 8.2685 49.953 9.09337 50.8284C10.4244 52.2563 11.918 53.1317 14.8113 54.1809C15.1362 54.2989 15.8549 54.5596 16.4048 54.7583C19.9043 56.0186 22.0352 57.1423 23.5725 58.5392C24.0411 58.9676 24.6098 59.6878 24.8473 60.1534C24.9348 60.3273 25.016 60.4701 25.0285 60.4701C25.041 60.4701 25.116 60.3211 25.2035 60.141C25.5409 59.4146 26.5033 58.3468 27.4656 57.6328C28.1093 57.1548 29.3654 56.4284 30.184 56.0559C30.9776 55.702 32.7211 55.0315 34.4958 54.4044C37.2079 53.4483 38.8014 52.5978 40.2137 51.3623C41.2261 50.4683 42.076 49.239 42.6134 47.8856C42.7946 47.4324 43.1008 46.2031 43.1945 45.5761C43.257 45.1601 43.2758 42 43.2758 31.0111V16.98L42.7759 16.8683C41.876 16.6696 40.8949 16.3282 40.3887 16.0364C38.7265 15.0679 37.6829 13.8137 37.1767 12.1623L37.0267 11.6905L35.7269 11.7215C33.8397 11.765 32.3962 11.647 29.8715 11.2373C28.0905 10.9517 27.5156 10.8772 26.497 10.8027C25.7596 10.7468 24.2474 10.7344 23.8412 10.7778ZM26.0908 12.0443C27.2719 12.1189 28.4905 12.2803 30.5277 12.6341C31.6963 12.8328 34.2709 13.0315 35.7894 13.0377H36.0581L36.3331 13.5778C37.3392 15.5645 39.1014 17.0608 41.2948 17.7809L41.9947 18.0169L41.9822 31.8989L41.9635 45.7871L41.7635 46.4701C41.4573 47.5131 41.4573 47.5193 41.2511 47.9477C40.8699 48.7423 40.32 49.4874 39.5638 50.2324C38.2203 51.561 36.9955 52.2191 33.7959 53.3366C31.4463 54.1561 30.3465 54.5845 29.4028 55.0315C27.7781 55.8137 26.522 56.6705 25.5347 57.6701L24.9848 58.235L24.8535 58.0612C24.5973 57.7259 23.8912 57.0741 23.2975 56.6333C21.6977 55.4474 19.8168 54.5596 16.5548 53.4608C14.755 52.8585 14.0239 52.5729 13.0928 52.1197C11.0993 51.1512 9.887 50.133 9.01838 48.6927C8.61844 48.0222 8.16851 46.9543 7.98104 46.1969L7.84981 45.663L7.83106 31.843L7.81231 18.0169L7.98104 17.9796C8.31849 17.8989 9.34958 17.4953 9.83076 17.2594C10.5369 16.9055 11.2056 16.4337 11.8367 15.8315C12.5554 15.1486 13.0615 14.4656 13.4552 13.6585L13.7739 13.0067L15.1487 12.9942C16.7547 12.9818 17.6421 12.9135 19.0294 12.6962C20.8166 12.4169 22.0727 12.2368 22.9976 12.1437C23.4975 12.0878 23.9912 12.0381 24.0911 12.0257C24.4786 11.9761 25.1222 11.9823 26.0908 12.0443Z" fill="white"/>
<path d="M24.4664 12.957C23.3666 13.0066 22.3042 13.1557 19.6859 13.6213C18.2236 13.8758 17.3175 13.9627 15.8927 13.9814L14.4429 14L14.3554 14.1925C13.9117 15.1113 12.7244 16.5082 11.6558 17.365C10.9497 17.9361 9.89984 18.5011 9.1687 18.7122L8.8125 18.8177L8.83125 31.961C8.84375 44.3033 8.85624 45.1352 8.95623 45.663C9.5124 48.4195 11.1497 50.2324 14.2304 51.5051C14.7429 51.7162 15.8052 52.1073 17.9049 52.8399C20.7857 53.8581 23.1229 55.1122 24.4789 56.3849L24.9351 56.8133L25.5538 56.2607C27.1473 54.839 29.1782 53.8332 33.4026 52.3681C34.1275 52.1135 34.9274 51.8279 35.1836 51.7286C36.9208 51.0457 38.2269 50.2199 39.083 49.2638C40.0766 48.1587 40.5015 47.3082 40.914 45.6009C41.014 45.2035 41.0202 44.1109 41.039 31.9672L41.0577 18.7681L40.4828 18.5632C39.4329 18.2031 38.5393 17.6754 37.6145 16.8683C36.7333 16.0984 36.0834 15.3038 35.6523 14.4594L35.4398 14.0497L34.4837 14.0062C32.9652 13.9379 31.4154 13.7454 29.6531 13.4102C28.1971 13.137 25.7787 12.8825 25.0288 12.9259C24.9289 12.9321 24.6726 12.9446 24.4664 12.957ZM27.6659 13.8386C28.1909 13.9069 29.272 14.0745 30.0718 14.2111C31.6653 14.4843 33.0526 14.6705 34.215 14.776C34.7211 14.8195 34.9836 14.8692 35.0273 14.925C35.0648 14.9747 35.2648 15.2665 35.4835 15.5707C36.0022 16.3033 36.7396 17.0794 37.452 17.6506C38.2519 18.2838 38.7143 18.5756 39.5642 18.9854L40.3078 19.3392V21.6984C40.3078 22.996 40.3266 28.6395 40.3453 34.2395C40.3765 41.6337 40.3703 44.5765 40.3141 44.98C40.1828 46.0417 39.7454 47.2337 39.1892 48.047C38.1831 49.5122 36.7458 50.4248 33.9338 51.3747C30.7905 52.4426 29.7469 52.8461 28.3408 53.5477C27.2035 54.1188 25.9412 54.9197 25.36 55.435C25.1663 55.6089 24.9851 55.7517 24.9538 55.7517C24.9289 55.7517 24.7101 55.584 24.4664 55.3729C22.9229 54.0505 20.5608 52.9082 16.6238 51.592C14.4992 50.8842 13.4993 50.4497 12.5244 49.8226C11.6433 49.2514 10.9059 48.4754 10.3873 47.5503C10.1685 47.1654 9.7936 46.1038 9.68112 45.5388C9.61863 45.2532 9.59988 42.1117 9.58114 32.2776L9.56239 19.3889L10.2623 19.0537C11.1122 18.6439 11.8495 18.1472 12.6932 17.4146C13.3243 16.8621 14.2429 15.8129 14.6554 15.1796L14.8678 14.8505L15.324 14.8133C15.574 14.7947 16.1802 14.7512 16.6676 14.714C17.6924 14.6395 19.3172 14.4222 20.7982 14.1614C21.9168 13.9627 23.4541 13.7392 23.9665 13.6958C24.6664 13.6399 26.7536 13.7206 27.6659 13.8386Z" fill="white"/>
<path d="M30.7223 16.2102C30.7035 16.2909 30.6036 16.8311 30.4973 17.4146C30.2786 18.6191 30.2099 18.9295 30.1599 18.9792C30.0911 19.0475 29.9349 18.9357 29.8349 18.737C29.6787 18.4204 28.4789 16.6386 28.4476 16.6696C28.3976 16.7131 28.6788 17.961 28.9163 18.7743C29.135 19.5193 29.1288 19.7056 28.9038 19.5255C28.4039 19.1406 26.5604 17.9362 26.5604 17.9982C26.5604 18.0603 27.4228 19.2523 27.654 19.5069C28.0227 19.9104 28.3101 20.2954 28.3101 20.3636C28.3101 20.4195 28.2414 20.4319 28.0789 20.4009C27.9477 20.3823 27.3478 20.345 26.7479 20.3264C25.9355 20.2954 25.673 20.3016 25.723 20.3574C25.7855 20.4257 27.1603 21.0342 27.7665 21.2639C27.929 21.326 28.0602 21.3942 28.0602 21.4129C28.0602 21.4501 27.929 21.5184 27.4665 21.6985C26.8979 21.9282 25.623 22.5614 25.623 22.6173C25.623 22.6484 25.6668 22.6608 25.7168 22.6359C25.7668 22.6173 26.1105 22.5863 26.4792 22.5676C26.8541 22.549 27.404 22.4993 27.7102 22.4621C28.0539 22.4248 28.2852 22.4248 28.3164 22.4559C28.3539 22.4931 28.0477 22.9277 27.4915 23.6169C27.0103 24.2191 26.6229 24.7282 26.6354 24.7468C26.6979 24.8027 28.6788 23.5858 28.7351 23.4492C28.7663 23.3809 29.0475 23.3934 29.0913 23.4679C29.11 23.4989 28.96 24.0266 28.7601 24.6288C28.5539 25.2373 28.3664 25.8146 28.3414 25.9202L28.3039 26.1002L28.4351 25.9823C28.5914 25.8395 29.5162 24.6785 29.8037 24.2563C30.1161 23.8031 30.1349 23.8217 30.3098 24.7158C30.4661 25.5415 30.7035 26.4479 30.7535 26.4479C30.7973 26.4479 30.8223 26.3175 30.9972 25.1566C31.066 24.7033 31.1222 24.2501 31.1222 24.1508C31.1222 23.9583 31.191 23.8838 31.3222 23.9397C31.3659 23.9583 31.5722 24.2005 31.7721 24.4798C32.2408 25.1131 33.0719 26.1437 33.1032 26.1127C33.1282 26.0878 32.747 24.784 32.497 24.0577C32.3345 23.5734 32.322 23.4927 32.397 23.412C32.4783 23.3375 32.522 23.3437 32.7595 23.4989C33.1532 23.7597 34.9592 24.7716 34.9842 24.7468C35.0279 24.6971 34.3155 23.8528 33.7156 23.2319C33.3719 22.8781 33.0844 22.5614 33.0719 22.5304C33.0407 22.4559 33.4719 22.4621 34.6092 22.5428C35.9278 22.6359 35.9653 22.6173 35.2154 22.2634C34.8717 22.102 34.4217 21.8971 34.2155 21.8164C33.3781 21.4687 33.2782 21.4129 33.3906 21.3508C33.5719 21.2452 35.3966 20.5127 35.5778 20.4692C35.6715 20.4444 35.7465 20.3947 35.7465 20.3512C35.7465 20.3016 35.3841 20.2891 34.403 20.3202C33.6656 20.3388 33.0594 20.3388 33.0594 20.3202C33.0594 20.3016 33.3344 20.0036 33.6718 19.6559C34.3592 18.9419 34.9967 18.1783 34.9967 18.0727C34.9967 18.0355 34.8217 18.11 34.6092 18.2404C33.4531 18.9543 32.3658 19.5441 32.3345 19.4696C32.322 19.4324 32.4908 18.8426 32.7157 18.1659C32.9407 17.4829 33.1219 16.8745 33.1094 16.8062C33.0969 16.7069 33.0219 16.769 32.772 17.1104C32.0096 18.1286 31.3972 18.8985 31.3347 18.9171C31.291 18.9295 31.2285 18.6625 31.1597 18.2093C31.0285 17.3588 30.8035 16.1233 30.7723 16.086C30.766 16.0736 30.741 16.1295 30.7223 16.2102ZM31.7846 19.3455C32.6782 19.7863 33.0844 20.4382 33.0844 21.4501C33.0844 21.9468 33.0657 22.0523 32.897 22.4124C32.6595 22.9091 32.3783 23.2382 31.9659 23.4989C30.9722 24.126 29.8849 24.0142 29.0038 23.1947C27.3728 21.6612 28.6164 18.9481 30.8848 19.0909C31.216 19.1095 31.4159 19.1654 31.7846 19.3455Z" fill="white"/>
<path d="M30.009 20.0905C29.3278 20.4257 28.9841 21.2018 29.1903 21.9344C29.2841 22.2696 29.8277 22.816 30.1527 22.9029C30.7589 23.0643 31.3025 22.9401 31.7775 22.5304C32.0962 22.251 32.2461 21.9095 32.2461 21.4501C32.2461 20.3078 31.0463 19.5752 30.009 20.0905Z" fill="white"/>
<path d="M21.4674 19.3082C21.2611 19.4075 20.9362 19.6062 20.7425 19.749L20.3925 20.0035L20.0676 19.9352C19.3614 19.7862 18.9802 19.8607 18.2553 20.2953L17.8242 20.5561L17.4305 20.4505C16.7931 20.2891 16.2556 20.3512 15.6182 20.6616C15.0683 20.9348 14.5621 21.3135 14.6434 21.3942C14.6684 21.4253 14.7809 21.4066 14.8933 21.3632C15.2808 21.2018 15.8994 21.0962 16.2181 21.1397C16.3931 21.1583 16.7431 21.2514 16.9993 21.3384C17.3117 21.4439 17.6054 21.4998 17.8741 21.506C18.2491 21.506 18.3303 21.4811 18.9365 21.1707C19.7489 20.7486 20.0613 20.7175 20.655 21.0155C20.8612 21.1149 21.0487 21.208 21.0674 21.2204C21.0862 21.2266 21.2736 21.0155 21.4861 20.7486C21.6923 20.4816 21.9673 20.1836 22.086 20.0905C22.4297 19.8297 22.9921 19.6062 23.3921 19.569C23.8233 19.5317 23.792 19.4758 23.2234 19.2709C22.5984 19.0474 21.9673 19.0599 21.4674 19.3082Z" fill="white"/>
<path d="M19.593 24.2501C18.8681 24.3619 18.0307 24.7344 17.5933 25.1441C17.4121 25.3242 17.0559 25.765 16.7996 26.1251C16.3372 26.7956 16.1935 26.9508 15.1249 27.969C14.5312 28.5339 14.175 29.012 13.8126 29.7384C13.4626 30.4337 13.0065 31.1539 12.6815 31.5016C12.5128 31.6816 12.3753 31.8617 12.3753 31.8927C12.3753 31.9237 12.594 31.9548 12.8565 31.961C13.1189 31.9672 13.4814 32.0045 13.6626 32.0417C14.15 32.1535 15.6748 32.079 16.2185 31.9237C16.7247 31.7747 17.2183 31.5202 17.2746 31.3712C17.3246 31.2532 17.1746 31.0173 16.9684 30.8807C16.8809 30.8249 16.8121 30.7566 16.8121 30.7255C16.8121 30.5827 17.0246 30.7131 17.5183 31.1601C17.812 31.4271 18.1807 31.7064 18.3369 31.7747C18.7806 31.9858 19.543 32.1597 20.3116 32.2342C21.0115 32.2962 21.049 32.2962 21.8676 32.1038C22.3301 31.9982 22.7863 31.9113 22.88 31.9113C23.1362 31.9113 23.1487 31.8244 22.955 31.4581C22.63 30.8435 22.4113 30.5765 21.6614 29.8377L20.9053 29.1051L21.4052 29.4528C22.7363 30.3778 23.3924 30.8062 23.9673 31.1166C24.8297 31.5885 24.9734 31.6319 25.4609 31.5326C25.8046 31.4705 25.9483 31.4767 26.6607 31.5885C27.1044 31.663 27.7043 31.7375 27.998 31.7623C28.2917 31.7809 28.6854 31.843 28.8729 31.8927C29.1353 31.9672 29.3353 31.9796 29.7477 31.9362C30.7038 31.8492 30.9163 31.8679 31.5599 32.11C31.8849 32.2342 32.2661 32.3707 32.4036 32.4142C32.5411 32.4515 32.8723 32.5818 33.141 32.6998C33.4097 32.8178 33.6534 32.9047 33.6846 32.8923C33.7221 32.8798 33.5284 32.6377 33.2597 32.3459C32.6473 31.6692 32.5598 31.5574 32.6848 31.6319C32.7348 31.663 32.866 31.7499 32.966 31.8244C33.5222 32.2342 35.1532 32.9047 35.5844 32.9047C35.6406 32.9047 35.6843 32.9295 35.6843 32.9605C35.6843 33.0226 35.2719 33.0723 34.2783 33.122C33.9034 33.1406 32.8348 33.2151 31.9036 33.2896C30.5289 33.3889 29.9164 33.4076 28.6229 33.3765C27.7043 33.3579 26.7107 33.3641 26.2795 33.4013C25.1484 33.5007 24.4173 33.4821 23.4299 33.3331C22.8737 33.2523 22.1988 33.1965 21.6552 33.1965C20.6053 33.1841 15.5998 33.3206 15.1561 33.3703C14.9874 33.3889 14.4313 33.4076 13.9251 33.4138C13.2189 33.42 12.9065 33.3951 12.5628 33.302C12.1628 33.2027 12.1003 33.1965 11.9504 33.2834C11.5942 33.4758 11.7941 33.8111 12.4378 34.1091C12.7003 34.2333 12.8127 34.2395 14.2188 34.2271C15.0437 34.2209 16.056 34.1898 16.4684 34.1526C16.8809 34.1153 17.7245 34.0843 18.3494 34.0843C18.9931 34.0843 19.7805 34.047 20.1866 33.9911C20.7303 33.9166 21.5052 33.898 23.4424 33.9042C24.8422 33.9104 26.0108 33.898 26.0483 33.8732C26.0795 33.8546 27.623 33.8111 29.4728 33.7739C32.691 33.718 35.1282 33.6062 36.3405 33.4634C37.0154 33.3827 38.034 33.1654 38.2402 33.0599L38.3964 32.9792L38.209 32.886C38.109 32.8364 37.959 32.7743 37.8715 32.7495C37.2903 32.5756 34.0471 30.9366 32.7723 30.173C31.8662 29.6266 31.8349 29.6142 31.3537 29.608C30.3851 29.6018 29.6727 29.49 29.2165 29.279C28.5979 28.9934 28.1605 28.7078 27.6543 28.2421C27.0544 27.6958 26.6357 27.4102 24.9672 26.4169C23.3424 25.4421 21.6802 24.5854 21.074 24.3991C20.6553 24.2688 19.9367 24.2005 19.593 24.2501ZM20.1367 29.1113C20.5303 29.6515 20.8178 30.1233 20.7741 30.1668C20.7553 30.1854 20.6553 30.1047 20.5553 29.9867C20.3741 29.7632 19.4493 28.4346 19.3555 28.2546C19.268 28.0869 19.8492 28.7264 20.1367 29.1113ZM26.7294 29.6887C27.3856 29.9308 27.8917 30.235 27.8043 30.322C27.7855 30.3406 27.5793 30.2785 27.3356 30.1792C27.0981 30.086 26.7232 29.937 26.5045 29.8563C26.2295 29.757 25.9858 29.6018 25.7358 29.3721C25.2859 28.9623 25.2609 28.8506 25.6983 29.1734C25.8858 29.3224 26.3107 29.5273 26.7294 29.6887Z" fill="white"/>
<path d="M26.1735 34.7113C26.0548 34.7982 25.9923 34.91 25.961 35.1148C25.9235 35.3632 25.9423 35.4191 26.1485 35.7171C26.4172 36.1082 26.4297 36.1827 26.2047 36.2262C26.1048 36.251 25.8548 36.3069 25.6423 36.3565C25.1549 36.4683 25.0987 36.4683 24.8299 36.3379C24.6237 36.2448 24.5987 36.2448 24.3363 36.3689C24.0801 36.4931 23.8113 36.8097 23.8113 36.9836C23.8113 37.114 24.0926 37.0767 24.2863 36.9215C24.4363 36.8035 24.5425 36.7849 24.9987 36.7787C25.3611 36.7787 25.5923 36.7477 25.7173 36.6794C25.8236 36.6235 26.011 36.5614 26.136 36.5366C26.3235 36.4993 26.3735 36.5117 26.4297 36.6173C26.5359 36.8222 26.5172 36.8594 26.236 36.9277C25.7736 37.0457 24.3675 37.3126 24.23 37.3126C24.0801 37.3126 22.1054 37.6851 20.4056 38.0328C19.6682 38.1818 19.3183 38.2811 19.262 38.3556C19.2058 38.4239 19.187 38.5667 19.212 38.7964C19.2245 38.9765 19.2495 39.1317 19.262 39.1441C19.2995 39.1814 19.9807 39.0386 20.4056 38.8958C21.0118 38.6971 23.2552 38.1756 25.6236 37.6789C30.0542 36.7601 32.4851 36.2944 32.6663 36.3317C32.81 36.3627 32.0539 36.5366 29.8417 36.965C26.7484 37.5734 21.6617 38.6474 21.6554 38.6971C21.6554 38.7033 21.5992 38.8461 21.5367 39.0199C21.118 40.1188 21.1055 40.1809 21.0743 40.988C21.0555 41.6089 21.0743 41.8882 21.1555 42.2607C21.268 42.7388 21.4992 43.2913 21.6179 43.3658C21.6742 43.3969 22.1491 43.0927 22.6428 42.714C22.7365 42.6395 22.8115 42.6084 22.8115 42.6457C22.8115 42.7264 22.3678 43.0803 21.9429 43.341C21.6304 43.5273 21.5992 43.5335 21.5242 43.4341C21.4492 43.3286 21.418 43.341 21.0805 43.5707C20.8805 43.7073 20.6181 43.9246 20.4931 44.055C20.2994 44.2723 19.687 45.1911 19.687 45.2718C19.687 45.3091 20.5806 45.0483 21.8429 44.6386C22.3616 44.4772 22.9365 44.2909 23.124 44.235C23.5114 44.1233 23.7489 43.9743 23.6551 43.906C23.4926 43.788 23.0927 42.9933 22.9615 42.5215C22.824 42.031 22.8052 40.541 22.9302 40.1064C23.1677 39.2807 23.7864 38.1321 23.9176 38.2687C23.9301 38.2749 23.8113 38.5046 23.6551 38.7778C23.2114 39.5415 23.0552 40.1126 23.0177 41.0439C22.9677 42.2049 23.1177 42.8568 23.6051 43.6266C23.7176 43.8066 23.7864 43.9556 23.7614 43.9619C23.7364 43.9619 23.7989 43.9929 23.9051 44.0239C24.0613 44.0674 24.1176 44.0488 24.255 43.9184C24.3988 43.7818 24.4238 43.7756 24.4987 43.8625C24.5487 43.9184 24.6987 44.0239 24.8299 44.0922L25.0799 44.2164L25.3861 44.0736L25.6861 43.9308L25.5361 43.7756C25.0424 43.2541 24.6987 42.0248 24.78 41.0749C24.8549 40.1375 25.1986 39.0324 25.6298 38.337C25.8548 37.9645 25.8173 38.1321 25.4986 38.9082C25.1049 39.8457 24.9924 40.3113 24.9549 41.1308C24.9237 41.7579 24.9424 41.9627 25.0487 42.3849C25.2236 43.0803 25.4736 43.5521 25.8048 43.8315L26.0798 44.0674L26.011 44.651C25.9735 44.9676 25.961 45.4208 25.9798 45.663C26.0298 46.3459 25.8735 46.439 24.9424 46.3024C24.6175 46.2528 24.53 46.259 24.455 46.3335C24.3738 46.4142 24.3738 46.4452 24.4738 46.5942C24.5612 46.7308 24.6175 46.7556 24.7612 46.7246C24.8612 46.706 25.0737 46.7184 25.2361 46.7556C25.4799 46.8177 25.6048 46.8115 25.8923 46.7246C26.3985 46.5756 26.4297 46.4887 26.4172 45.3774C26.4047 44.4585 26.4547 44.204 26.6609 44.204C26.7109 44.204 26.9109 44.2536 27.1109 44.3219C27.3046 44.384 27.6045 44.4585 27.7795 44.4834L28.092 44.5268L27.7858 44.204C27.2733 43.6576 26.9796 42.863 26.8671 41.702C26.7484 40.4479 27.0109 39.231 27.6358 38.1321C28.0857 37.3499 28.117 37.3685 27.7233 38.1818C27.3046 39.0634 27.2171 39.3179 27.0859 40.0878C26.9546 40.8452 26.9984 41.9627 27.1796 42.6705C27.3358 43.2727 27.7358 44.0488 28.0482 44.3468C28.2544 44.5454 28.3294 44.5765 28.7794 44.6324C29.0543 44.6696 29.4605 44.7565 29.6855 44.8248C29.9104 44.8931 30.1104 44.949 30.1292 44.949C30.2291 44.949 30.1229 44.6882 29.9729 44.5703C29.8792 44.502 29.7105 44.2536 29.598 44.0239C29.1731 43.1858 29.0481 42.565 29.0481 41.3543C29.0543 39.8643 29.398 38.5854 30.0979 37.443C30.4666 36.8408 30.5478 36.878 30.1979 37.4803C29.8854 38.0142 29.5542 38.8585 29.3605 39.5787C29.2355 40.0692 29.2168 40.2803 29.2168 41.3481C29.2168 42.5091 29.223 42.5836 29.3918 43.1175C29.8355 44.4958 30.4354 45.0732 31.8602 45.4767C32.6288 45.7002 32.7038 45.6754 32.4101 45.3277C32.0601 44.9117 31.8789 44.5703 31.6102 43.8129C31.0165 42.1304 31.0415 40.3858 31.6914 38.5171C32.0914 37.3685 32.4538 36.7166 32.7975 36.5428C32.8912 36.4993 33.135 36.4434 33.3474 36.4248C33.5536 36.4 33.7724 36.3689 33.8224 36.3503C34.0161 36.2758 34.1348 35.7854 34.0036 35.5805C33.9536 35.4998 33.8411 35.506 33.1725 35.5991C32.3913 35.7046 30.9728 35.9716 29.1231 36.3503C27.1796 36.7477 27.0046 36.7787 26.9609 36.7415C26.9421 36.7166 26.9359 36.6297 26.9609 36.5428C27.0046 36.3627 27.2858 36.1951 27.5295 36.1951C27.7295 36.1951 27.9357 36.0896 27.9357 35.9902C27.9357 35.953 27.8607 35.8599 27.7733 35.7791C27.6045 35.6364 27.4546 35.655 27.1671 35.8536C26.8859 36.0523 26.8296 35.9902 26.7859 35.4315C26.7172 34.6306 26.7047 34.5809 26.5109 34.5809C26.4172 34.5809 26.2672 34.643 26.1735 34.7113Z" fill="white"/>
<path d="M16.749 35.1149C16.5241 35.2018 16.1866 35.3073 15.9991 35.3508C15.7929 35.3942 15.6867 35.4439 15.7304 35.4687C15.7742 35.4998 16.0991 35.6177 16.4491 35.7419C17.3052 36.0337 18.0363 36.0834 18.6612 35.8971C18.8987 35.8226 19.1487 35.7233 19.2174 35.6736C19.3361 35.5805 19.3361 35.5805 19.1612 35.5743C19.0612 35.5743 18.78 35.4812 18.5363 35.3632C17.5364 34.8851 17.3927 34.8665 16.749 35.1149Z" fill="white"/>
<path d="M20.9048 38.8585C20.2611 39.0138 19.7799 39.3676 19.505 39.8829C19.0551 40.7335 19.0863 42.0807 19.5987 43.5956C19.705 43.9184 19.8299 44.0488 19.8862 43.8998C19.9549 43.7197 21.0548 42.9127 21.1922 42.9437C21.211 42.9499 21.1547 42.7512 21.0735 42.5091C20.7486 41.5282 20.8548 40.1251 21.3297 39.1752C21.5859 38.6785 21.5984 38.6847 20.9048 38.8585Z" fill="white"/>
<path d="M34.2083 39.9574C34.2895 40.1747 34.3708 40.9073 34.3708 41.4909C34.3708 42.7698 33.9833 44.3157 33.4584 45.1228C33.3084 45.3525 33.1834 45.5574 33.1834 45.5823C33.1834 45.694 33.4646 45.5202 33.6959 45.2656C34.177 44.7255 34.6207 43.5335 34.6207 42.7636C34.6207 42.5401 34.6457 42.4035 34.6895 42.4035C34.7394 42.4035 34.7519 42.627 34.7332 43.1299C34.7082 43.6949 34.6707 43.9432 34.5645 44.2164C34.127 45.3339 33.1584 46.1286 31.8649 46.439C31.4087 46.5446 31.1212 46.5632 29.7152 46.5632C27.9217 46.5632 27.3093 46.6253 26.1532 46.9295C24.6535 47.3268 23.8598 47.333 22.835 46.9667C21.5977 46.5197 21.5852 46.5197 20.5853 46.439C19.4042 46.3459 18.5544 46.0665 17.842 45.5264C16.9608 44.8497 16.4672 43.5583 16.5109 42.031C16.5297 41.3233 16.5359 41.286 16.7046 41.1184C16.7984 41.0191 16.8734 40.9135 16.8734 40.8887C16.8734 40.8576 16.6734 40.8514 16.4297 40.8639C16.0672 40.8949 15.886 40.9446 15.4798 41.1557L14.9736 41.4102L14.8112 41.255C14.7237 41.1681 14.6237 41.0998 14.5987 41.0998C14.5362 41.0998 14.58 41.7641 14.6424 41.8262C14.6674 41.8448 14.8362 41.8758 15.0174 41.8945C15.2673 41.9131 15.4298 41.8882 15.6735 41.7827C15.8548 41.702 16.0172 41.6523 16.0297 41.671C16.0485 41.6834 16.0297 41.9317 15.9922 42.2235C15.9547 42.5091 15.9235 43.3286 15.9173 44.0488C15.9173 45.4767 15.9922 45.9982 16.2672 46.5446C16.5234 47.0474 17.2608 47.6248 17.6357 47.6186C17.7607 47.6124 17.7357 47.5752 17.4608 47.3206C16.7609 46.6811 16.5047 46.0851 16.3484 44.6758C16.2984 44.2723 16.3359 44.3282 16.4859 44.8683C16.6484 45.4829 16.9421 45.9361 17.517 46.4701C17.917 46.8488 18.0857 46.9605 18.4981 47.1157C19.0668 47.333 19.3792 47.3517 20.3103 47.2213C21.229 47.0909 21.5227 47.153 23.0287 47.78C23.5536 48.0035 23.6349 48.016 24.216 48.016C24.7409 48.016 24.9534 47.9787 25.5283 47.8111C27.2906 47.2834 27.5343 47.2337 28.4341 47.2213L29.2778 47.2151L29.8402 47.4696C30.765 47.8918 31.4462 47.9663 32.3211 47.749C33.6334 47.4137 34.5707 46.5508 35.0457 45.2408C35.1956 44.8248 35.2081 44.7131 35.2081 43.7384C35.2144 43.0678 35.1831 42.5463 35.1269 42.3104C34.9769 41.6399 34.5645 40.4106 34.402 40.1313C34.2395 39.8581 34.1333 39.765 34.2083 39.9574ZM34.677 44.9242C34.4895 45.6878 33.8708 46.5011 33.1459 46.9357C32.3711 47.4013 31.4149 47.5565 30.6963 47.3455C30.5338 47.2958 30.2651 47.2213 30.0901 47.1716C29.7777 47.0909 29.7777 47.0909 30.6526 47.0537C31.1337 47.0288 31.7087 46.9667 31.9336 46.9109C32.4335 46.7805 33.2522 46.3956 33.6021 46.1162C33.9708 45.8306 34.4457 45.216 34.5832 44.8621C34.7269 44.4958 34.7769 44.5268 34.677 44.9242ZM16.9983 45.1228C16.9983 45.2346 17.7232 45.961 18.0607 46.1907C18.5919 46.5508 19.2043 46.8115 19.6292 46.855C20.0604 46.8984 20.1229 46.9978 19.7229 46.9978C18.8731 46.9978 17.7482 46.3521 17.1671 45.5264C16.8796 45.1104 16.8546 45.0732 16.9296 45.0732C16.9671 45.0732 16.9983 45.098 16.9983 45.1228Z" fill="white"/>
<path d="M22.7847 46.377L22.4785 46.5508L22.691 46.6812C22.9409 46.8302 23.3096 46.855 23.3096 46.7246C23.3096 46.675 23.3471 46.6253 23.3909 46.6067C23.4846 46.5756 23.7471 46.6874 23.7471 46.7619C23.7471 46.8302 24.0033 46.824 24.122 46.7495C24.197 46.706 24.1908 46.675 24.0908 46.5632C23.9096 46.3645 23.5346 46.1907 23.2971 46.1969C23.1847 46.1969 22.9534 46.2776 22.7847 46.377Z" fill="white"/>
<path d="M12.4375 47.0475C12.4375 47.1468 12.9125 47.569 13.1999 47.7304C13.5624 47.9353 14.3185 48.1153 14.8122 48.1153C15.4183 48.1153 15.8808 48.2146 16.5119 48.494C17.543 48.9348 18.1617 48.9534 19.149 48.5747C20.1426 48.196 20.6426 48.2271 22.0111 48.7734C23.1109 49.2142 23.4671 49.3011 24.092 49.3011C24.8732 49.3073 25.4044 49.177 26.3417 48.761C27.0416 48.4568 27.2166 48.4009 27.6228 48.3823C28.029 48.3574 28.1852 48.3823 28.7976 48.5747C30.7098 49.177 31.4597 49.177 32.8407 48.5685L33.5281 48.2705L34.6842 48.2643C35.9153 48.2643 36.1715 48.2209 36.8152 47.898C37.0839 47.7614 37.6025 47.271 37.54 47.2089C37.5275 47.1903 37.4151 47.2337 37.3026 47.302C36.7277 47.6311 35.7091 47.749 34.8467 47.5876C34.1843 47.4634 33.9656 47.4883 33.0282 47.7738C31.9534 48.1029 31.5097 48.196 30.9035 48.2022C30.4161 48.2084 30.2161 48.1712 29.435 47.9477C28.9351 47.8049 28.3727 47.6683 28.1852 47.6497C27.729 47.5938 26.8291 47.749 26.0293 48.016C24.8919 48.3947 24.5107 48.463 23.8921 48.3699C23.5921 48.3264 22.8735 48.1401 22.2861 47.9539C20.6801 47.4324 20.2926 47.42 18.7178 47.8359C18.2679 47.9539 17.7992 48.0532 17.6805 48.0532C17.393 48.0532 16.8306 47.9042 16.2182 47.6683C15.737 47.4821 15.6683 47.4758 14.4685 47.4324C13.2499 47.3889 13.2124 47.3827 12.875 47.2089C12.425 46.973 12.4375 46.9792 12.4375 47.0475Z" fill="white"/>
<path d="M17.5042 49.7109C17.648 49.8847 18.4541 50.2138 18.904 50.2883C19.2165 50.3379 19.4914 50.3379 19.9476 50.2821C20.8912 50.1765 21.3412 50.2883 22.3223 50.8719C22.641 51.0581 23.0971 51.3002 23.3346 51.4058C24.0782 51.741 25.0656 51.7659 25.9592 51.4679C26.4591 51.3064 27.2465 50.7974 27.4465 50.518C27.5215 50.4062 27.6152 50.3007 27.6465 50.2758C27.684 50.251 27.6965 50.22 27.6777 50.2013C27.6652 50.1827 27.5277 50.251 27.3778 50.3566C26.8591 50.698 25.5968 50.9712 24.7406 50.9215C24.0907 50.8843 23.3284 50.6484 22.5847 50.251C21.5286 49.6923 20.7162 49.5557 19.6164 49.7668C19.0102 49.8847 18.0854 49.8475 17.7229 49.6985C17.4417 49.5805 17.398 49.5805 17.5042 49.7109Z" fill="white"/>
<path d="M44.5067 16.3033C44.5192 16.3406 44.6005 16.5206 44.6942 16.7069C44.9629 17.2408 45.1191 17.694 45.1941 18.1286C45.2629 18.5259 45.2566 18.5446 44.9692 19.4013C44.5567 20.6368 44.4567 21.2328 44.538 21.9902C44.613 22.6483 44.7817 23.0891 45.1504 23.5982C45.7128 24.3805 46.244 25.4297 46.244 25.7712C46.244 25.9388 46.2127 25.9264 45.9253 25.616C45.6566 25.318 45.3316 25.169 45.0879 25.231C44.9192 25.2745 44.6192 25.7277 44.6192 25.9326C44.6192 26.1933 44.7567 26.4293 45.0004 26.5845C45.2254 26.7273 45.5441 26.7645 45.4628 26.6341C45.4441 26.6093 45.5566 26.5658 45.7128 26.5472C45.8628 26.5224 46.0065 26.4789 46.0253 26.4417C46.0503 26.4106 45.894 26.2182 45.6816 26.0071C45.4691 25.796 45.3066 25.616 45.3191 25.6035C45.3754 25.5539 45.7878 25.8953 45.994 26.1623C46.194 26.4168 46.369 26.5286 46.369 26.3982C46.369 26.3672 46.4127 26.2927 46.4627 26.2244C46.5564 26.1064 46.5564 26.1064 46.5127 26.2306C46.444 26.4231 47.3126 25.7215 47.65 25.3117C47.9062 24.9951 47.9937 24.9144 47.9937 24.9827C47.9937 24.9951 47.8937 25.1255 47.775 25.2745C47.6563 25.4235 47.5563 25.5663 47.5563 25.5911C47.5563 25.6222 47.775 25.529 48.0437 25.3925C48.3062 25.2559 48.6061 25.1441 48.7124 25.1503C48.8748 25.1503 48.8623 25.1627 48.6124 25.2435C48.4499 25.2931 48.0937 25.4545 47.8187 25.6098C47.5438 25.765 47.2938 25.8891 47.2626 25.8891C47.2313 25.8891 47.1251 25.9698 47.0251 26.0754C46.9314 26.1747 46.8189 26.243 46.7876 26.2182C46.7502 26.1996 46.7439 26.212 46.7689 26.2492C46.7876 26.2865 46.7627 26.3423 46.7064 26.3734C46.5252 26.4727 46.6689 26.5596 47.2438 26.6962C47.5563 26.7645 47.875 26.8514 47.95 26.8887C48.1062 26.957 49.0061 26.8204 49.256 26.69C49.3748 26.6279 49.3748 26.6155 49.281 26.5224C49.2123 26.4541 49.0811 26.4168 48.8998 26.4231C48.7436 26.4231 48.6186 26.4231 48.6186 26.4106C48.6186 26.4044 48.7749 26.3051 48.9623 26.1996C49.331 25.9885 49.6997 25.5973 49.6497 25.4732C49.6372 25.4297 49.6935 25.2869 49.781 25.1627C49.9247 24.9455 50.0372 24.6661 49.9872 24.6226C49.9559 24.5916 48.9998 24.7592 48.9248 24.8089C48.8873 24.8275 48.8811 24.7406 48.9061 24.5792L48.9498 24.3184L48.5874 24.3619C48.3874 24.3867 48.1812 24.4364 48.1374 24.4736C48.075 24.5233 48.0562 24.4984 48.0562 24.3432C48.0562 24.0887 47.9187 24.0887 47.3938 24.337C46.9564 24.5481 46.6627 24.8523 46.5377 25.231L46.4564 25.4732L46.3752 25.2C46.3315 25.051 46.2002 24.7964 46.0815 24.6412C45.894 24.3867 45.8628 24.2874 45.8315 23.8652C45.8128 23.592 45.7128 23.1078 45.6066 22.7849C45.3441 21.953 45.3254 21.5246 45.4941 20.6306C45.5691 20.227 45.6503 19.8421 45.6816 19.7738C45.7253 19.6621 45.7378 19.6621 45.8128 19.8359C45.944 20.1463 45.9565 21.3197 45.8378 21.9095C45.7815 22.1889 45.7441 22.4372 45.7628 22.4497C45.8128 22.4993 46.0378 22.0896 46.1502 21.7419C46.2377 21.4874 46.2502 21.3073 46.219 20.9658C46.194 20.7237 46.1877 20.5375 46.2065 20.5561C46.219 20.5685 46.3065 20.8727 46.394 21.2266C46.4814 21.5805 46.6002 21.9406 46.6502 22.0213C46.7876 22.2324 47.1313 22.369 47.3251 22.2945C47.5063 22.2262 47.7188 21.9468 47.775 21.7109C47.8187 21.5432 47.8125 21.5432 47.5125 21.5432C47.2438 21.5432 47.1813 21.5184 46.9814 21.3073C46.6502 20.9721 46.2127 20.016 46.0253 19.2275C45.9378 18.855 45.869 18.5197 45.869 18.4825C45.869 18.439 45.9815 18.6129 46.119 18.8674C46.2502 19.1219 46.4377 19.4013 46.5252 19.4945C46.8001 19.78 47.3251 19.8794 47.8375 19.7366L48.0875 19.6683L47.6625 19.4696C47.1501 19.2275 47.0376 19.1219 46.4752 18.3769C46.0628 17.8368 44.463 16.1481 44.5067 16.3033ZM46.3065 26.1064C46.3065 26.1933 46.294 26.2616 46.2815 26.2616C46.269 26.2616 46.244 26.1933 46.2315 26.1064C46.2127 26.0195 46.2252 25.9512 46.2502 25.9512C46.2815 25.9512 46.3065 26.0195 46.3065 26.1064Z" fill="white"/>
<path d="M4.25082 17.7872C3.12599 18.9047 2.51983 19.4262 2.17613 19.5628L1.90742 19.6683L2.08239 19.7366C2.3386 19.8359 2.83228 19.8173 3.12599 19.7056C3.3572 19.6124 3.66341 19.302 3.98836 18.8364C4.06335 18.7246 4.06959 18.7246 4.02585 18.8426C4.00085 18.9109 3.89462 19.2586 3.78214 19.6186C3.52593 20.4319 3.07599 21.3446 2.81353 21.5619C2.66355 21.686 2.55107 21.7295 2.3386 21.7295C2.18862 21.7295 2.06364 21.7419 2.06364 21.7605C2.06364 21.7792 2.11988 21.9095 2.18862 22.0461C2.3261 22.3069 2.63231 22.5366 2.85103 22.5366C3.20097 22.5366 3.46968 22.0896 3.53217 21.4129C3.55092 21.1956 3.58842 20.9038 3.60716 20.7672C3.64466 20.5499 3.65716 20.5872 3.69465 21.0466C3.73839 21.6612 3.88837 22.2138 4.07584 22.4435C4.14458 22.5304 4.21332 22.5925 4.22582 22.5863C4.23832 22.5739 4.20083 22.4248 4.14458 22.2572C4.0071 21.8288 4.00085 20.3264 4.14458 19.9291C4.21957 19.7118 4.23832 19.6869 4.24457 19.8049C4.25082 19.8918 4.31331 20.1401 4.3883 20.3637C4.49453 20.6865 4.52578 20.91 4.51953 21.5122C4.51953 22.1951 4.50703 22.3007 4.31956 22.816C4.20707 23.1264 4.08834 23.592 4.06335 23.859C4.0071 24.3743 3.77589 25.1441 3.68215 25.1441C3.65091 25.1441 3.62591 25.1007 3.62591 25.051C3.62591 25.0013 3.60091 24.9579 3.56342 24.9579C3.53217 24.9579 3.50093 24.9889 3.50093 25.0324C3.50093 25.0696 3.41969 24.9889 3.31971 24.8523C3.11974 24.5792 2.7073 24.275 2.3761 24.1632C2.05739 24.0515 2.0449 24.0639 2.07614 24.3991L2.10739 24.7033L1.94491 24.5916C1.7012 24.424 1.21377 24.3681 1.08879 24.4923C1.03255 24.5419 1.00755 24.635 1.0263 24.6847C1.05754 24.7716 1.0013 24.784 0.582614 24.7716C-0.0985345 24.7468 -0.0735382 24.7344 0.113934 25.0572C0.420138 25.5725 0.432636 25.6098 0.401391 25.7401C0.363897 25.8891 0.638856 26.1561 1.0013 26.3113L1.22002 26.4107L0.951309 26.4479C0.470131 26.5162 0.451384 26.6838 0.901317 26.8887C1.18877 27.0191 1.73244 27.0377 2.18862 26.9384C2.34485 26.9073 2.6823 26.8452 2.93851 26.808C3.19472 26.7645 3.41969 26.7273 3.43219 26.7149C3.47593 26.6838 3.05725 26.3362 2.75104 26.1561C2.59481 26.0692 2.42609 25.9512 2.36985 25.9078C2.31361 25.8581 1.96366 25.6719 1.59496 25.4856C0.94506 25.1566 0.795082 25.0138 1.37 25.2745C1.52622 25.3428 1.6887 25.3801 1.73244 25.3676C1.77619 25.349 1.80743 25.3614 1.79493 25.3987C1.78868 25.4359 2.0449 25.6098 2.3636 25.796C2.67605 25.9761 2.93851 26.1127 2.93851 26.0878C2.93851 26.0692 2.85728 25.9637 2.75729 25.8581C2.58232 25.6781 2.21362 25.0821 2.27611 25.0821C2.29486 25.0821 2.42609 25.2435 2.56982 25.4359C2.71355 25.6346 2.98851 25.9761 3.17598 26.1934C3.50093 26.5597 3.53217 26.5783 3.60716 26.4727C3.65716 26.4044 3.70715 26.361 3.7259 26.3734C3.74464 26.3796 3.82588 26.3051 3.91962 26.1996C4.0071 26.094 4.09459 26.0257 4.11334 26.0382C4.13209 26.0568 4.28206 25.9761 4.45079 25.8581C4.61326 25.7401 4.76949 25.6408 4.78824 25.6408C4.86323 25.6408 4.66326 25.8457 4.41954 26.0195C4.10709 26.243 3.85088 26.6093 3.97586 26.659C4.02585 26.6776 4.10709 26.6776 4.15708 26.659C4.20707 26.6342 4.25082 26.6528 4.25082 26.69C4.25082 26.7273 4.16958 26.7583 4.06335 26.7583C3.96336 26.7583 3.87587 26.7832 3.87587 26.808C3.87587 26.839 4.0571 27.0067 4.28206 27.1929C4.50703 27.3792 4.68825 27.5344 4.68825 27.5468C4.68825 27.6151 4.54452 27.5344 4.34455 27.3481C4.03835 27.0625 3.97586 27.1246 4.26332 27.4288C4.52578 27.7082 4.72575 27.9876 4.81323 28.2111C4.90697 28.4532 4.85073 28.4098 4.60701 28.0124C4.48203 27.82 4.23207 27.5033 4.0571 27.3171C3.80088 27.0439 3.75089 27.0067 3.77589 27.1308C3.80088 27.2178 3.84463 27.4971 3.87587 27.7517C3.95711 28.3725 4.02585 28.596 4.3383 29.2665C4.43204 29.4714 4.52578 29.7694 4.54452 29.937C4.58202 30.2537 4.64451 30.3095 4.75074 30.1109C4.78824 30.0426 4.88822 29.9184 4.96946 29.8377C5.11319 29.6949 5.12569 29.6887 5.18818 29.7942C5.21942 29.8563 5.22567 29.9246 5.20693 29.9495C5.18818 29.9681 5.21317 29.9867 5.26317 29.9867C5.38815 29.9867 5.43189 29.8688 5.47564 29.4342C5.49438 29.2231 5.47564 28.9747 5.42564 28.8071C5.3444 28.5588 5.35065 28.5215 5.45689 28.416C5.55062 28.3229 5.56312 28.2484 5.53188 28.0745C5.45689 27.671 5.23817 27.3668 4.84448 27.106C4.52578 26.8949 4.49453 26.8577 4.59452 26.8142C4.66326 26.7894 4.78199 26.7645 4.85698 26.7645C4.93197 26.7583 5.07569 26.69 5.16943 26.6093C5.33191 26.4665 5.3444 26.4293 5.3444 25.9947C5.3444 25.5849 5.32566 25.5042 5.19443 25.3676C5.0132 25.1752 4.80074 25.1628 4.43204 25.3056C4.16333 25.4173 3.81338 25.8146 3.81338 26.0257C3.81338 26.0878 3.78214 26.1375 3.75089 26.1375C3.58217 26.1375 3.86962 25.2311 4.26332 24.5233C5.25067 22.7477 5.33816 22.4869 5.30066 21.4874C5.27566 20.9224 5.23817 20.7175 5.00696 20.0222C4.59452 18.7805 4.60077 18.4018 5.06945 17.396C5.4069 16.6634 5.35065 16.6945 4.25082 17.7872Z" fill="white"/>
<path d="M45.7252 26.6155C45.6314 26.628 45.569 26.6652 45.5877 26.6962C45.6064 26.7211 45.5127 26.7956 45.3815 26.8515C44.6878 27.1805 44.3691 27.5654 44.3691 28.0931C44.3691 28.3539 44.3754 28.3725 44.4941 28.3104C44.6066 28.2484 44.6003 28.267 44.4629 28.5712C44.3754 28.7512 44.3066 28.9623 44.3066 29.043C44.3066 29.2727 44.5816 29.9867 44.6628 29.9867C44.7066 29.9867 44.7441 29.9557 44.7441 29.9246C44.7441 29.8005 44.9503 29.8688 45.1253 30.055C45.2253 30.1668 45.319 30.2413 45.3252 30.2288C45.3377 30.2164 45.4127 29.9681 45.494 29.6763C45.6502 29.1113 45.9814 28.3291 45.8877 28.745C45.7564 29.3286 45.9439 30.4151 46.3188 31.247C46.5063 31.6444 46.5188 31.6568 46.625 31.5637C46.6875 31.5078 46.7563 31.4084 46.775 31.3464C46.8 31.2781 46.8438 31.2284 46.8813 31.2284C46.9188 31.2284 46.9375 31.247 46.9125 31.2656C46.875 31.3091 47.0562 31.6816 47.1937 31.8492C47.2937 31.9672 47.5624 32.1597 47.6311 32.1597C47.6624 32.1597 47.6811 32.1162 47.6811 32.0603C47.6811 31.9982 47.8561 32.1224 48.1436 32.3894C48.3935 32.6191 48.6872 32.8612 48.7935 32.9233L48.9809 33.0288L49.0247 32.5508C49.0497 32.2838 49.0747 31.9796 49.0872 31.8803C49.0997 31.7747 49.1122 31.6692 49.1122 31.6444C49.1184 31.6133 49.1934 31.6009 49.2934 31.6133L49.4621 31.6319V30.918C49.4621 30.5268 49.4371 30.0798 49.4059 29.937L49.3559 29.6639L49.5246 29.7756C49.6683 29.8688 49.6996 29.8688 49.7496 29.7942C49.8308 29.6701 49.8183 29.5707 49.7058 29.3348C49.5871 29.0803 48.9747 28.3663 48.7872 28.267C48.6497 28.1925 48.6497 28.1925 48.8122 28.1863C48.906 28.1863 49.1247 28.2111 49.3059 28.2484C49.4871 28.2794 49.6558 28.2918 49.6871 28.2732C49.7621 28.2297 49.5934 27.9938 49.2059 27.5965C48.9434 27.3295 48.8247 27.2612 48.3685 27.1184C48.0748 27.0253 47.6249 26.9073 47.3687 26.8515C47.1125 26.8018 46.8375 26.7397 46.7688 26.7211C46.5501 26.6652 46.5376 26.9135 46.7438 27.3171C46.9625 27.7517 47.2749 28.0248 47.8936 28.3353C48.1561 28.4656 48.4623 28.6643 48.5748 28.7699C48.6872 28.8754 48.7247 28.9189 48.656 28.863C48.4435 28.7016 47.8561 28.3911 47.6061 28.3104C47.4749 28.2732 47.3187 28.1739 47.25 28.0869C46.9875 27.7579 47.025 27.9752 47.3437 28.6084C47.7061 29.3348 47.7186 29.3535 48.2561 29.7135C48.4498 29.8501 48.6747 30.0426 48.756 30.1419C48.8747 30.2971 48.8747 30.3095 48.7747 30.235C48.706 30.1854 48.5935 30.0923 48.5248 30.0302C48.456 29.9681 48.3185 29.8688 48.2123 29.8191C48.1123 29.7694 47.9561 29.6639 47.8749 29.5894C47.7811 29.5087 47.7374 29.49 47.7624 29.5521C47.8874 29.875 48.2436 30.9925 48.2436 31.0484C48.2436 31.1974 48.1811 31.0546 47.9373 30.3654C47.6624 29.5832 47.5374 29.3721 47.6311 29.8501C47.6749 30.0612 47.6749 30.1978 47.6249 30.2723C47.5749 30.3654 47.5624 30.322 47.5562 30.0302C47.5562 29.8377 47.5312 29.6763 47.4999 29.6763C47.4687 29.6763 47.4562 29.6204 47.4749 29.5521C47.5062 29.428 47.2375 28.6643 47.0937 28.4594C47.0062 28.3477 47 28.3539 46.9625 28.5277C46.9375 28.6333 46.8813 28.8133 46.8313 28.9313C46.7813 29.0492 46.7563 29.0803 46.775 28.9934C46.925 28.4098 46.8625 27.9752 46.5126 27.137C46.4001 26.8763 46.3313 26.957 46.2751 27.4102C46.2189 27.8572 46.0376 28.5526 45.9876 28.5215C45.9626 28.5091 45.9814 28.3353 46.0314 28.1366C46.1689 27.5654 46.2564 27.0253 46.2314 26.9011C46.2126 26.8142 46.1501 26.8701 45.9501 27.1308C45.8064 27.3171 45.5752 27.6151 45.4377 27.7951C45.3002 27.969 45.1503 28.1925 45.094 28.2918C45.044 28.3849 45.0003 28.4346 44.994 28.3974C44.994 28.3601 45.1378 28.1118 45.3127 27.8448C45.4815 27.5841 45.6127 27.3481 45.5939 27.3295C45.5752 27.3171 45.4065 27.4164 45.2128 27.5592C45.0253 27.702 44.8691 27.8076 44.8691 27.7889C44.8691 27.7765 45.1315 27.5592 45.4502 27.3109C46.1251 26.7894 46.2126 26.6962 46.1001 26.6217C46.0626 26.5969 46.0001 26.5783 45.9626 26.5845C45.9314 26.5845 45.8252 26.6031 45.7252 26.6155ZM47.3437 29.5645C47.2937 29.7135 47.225 29.9122 47.1875 30.0178C47.1437 30.1171 47.1062 30.3344 47.1062 30.4958C47.1 30.7441 47.0812 30.7814 47.0125 30.7193C46.9125 30.6386 46.925 30.5703 47.1625 29.8129C47.25 29.5335 47.3499 29.3038 47.3749 29.3038C47.3999 29.3038 47.3874 29.4217 47.3437 29.5645Z" fill="white"/>
<path d="M2.68907 26.9818C2.5016 27.0253 2.23289 27.0687 2.09541 27.075C1.75796 27.0874 0.933083 27.522 0.545641 27.8883C0.376916 28.0435 0.251935 28.2049 0.270682 28.2359C0.295678 28.267 0.470652 28.2794 0.670622 28.2608L1.02682 28.2297L0.764358 28.5277C0.495648 28.8319 0.126953 29.4962 0.126953 29.6763C0.126953 29.8315 0.289429 29.9432 0.439407 29.8936C0.558139 29.8563 0.570637 29.8625 0.508146 29.9743C0.458154 30.0674 0.458154 30.3157 0.508146 30.8807L0.583135 31.6568L0.75186 31.6195C0.920585 31.5885 0.920585 31.5885 0.964328 32.0169C0.989325 32.2466 1.02057 32.5756 1.03932 32.7432L1.07681 33.0475L1.27678 32.8364C1.38927 32.7184 1.60798 32.5073 1.77046 32.3645C1.93293 32.2217 2.06416 32.0727 2.06416 32.0417C2.06416 32.0044 2.09541 31.9734 2.1329 31.9734C2.16415 31.9734 2.17665 31.9982 2.1579 32.0355C2.13915 32.0665 2.1704 32.0976 2.23914 32.0976C2.41411 32.0976 2.8203 31.7809 3.02652 31.4891C3.20774 31.2284 3.31398 31.1601 3.31398 31.3029C3.31398 31.3463 3.35772 31.4333 3.40147 31.4891C3.47645 31.5885 3.4952 31.5636 3.63893 31.2718C4.01387 30.502 4.23259 28.9934 4.01387 28.7264C3.88889 28.5836 3.75141 28.0186 3.74516 27.6275C3.73267 26.8701 3.68892 26.8887 3.164 27.969C2.70782 28.9002 2.68282 28.9747 2.75156 29.1486C2.96403 29.6701 3.06402 30.0115 3.09526 30.3406C3.13276 30.6883 3.12651 30.6883 2.97653 30.1419C2.89529 29.8315 2.76406 29.4714 2.69532 29.341L2.56409 29.0989L2.46411 29.341C2.40786 29.4714 2.33912 29.5956 2.30788 29.6142C2.25789 29.6514 2.22039 29.7942 2.02667 30.7007C1.97043 30.9738 1.87044 31.2656 1.80795 31.3463C1.65798 31.5326 1.65798 31.4953 1.8142 31.1601C1.88294 31.0111 1.93918 30.8 1.93918 30.7007C1.93918 30.5206 2.06416 29.9619 2.1579 29.7197C2.23914 29.5211 2.08291 29.608 1.55799 30.0612C1.18305 30.3778 1.08306 30.4461 1.19554 30.2971C1.28303 30.1792 1.56424 29.906 1.8142 29.7011C2.13915 29.4217 2.34537 29.1858 2.54534 28.8444C2.70157 28.5836 2.8203 28.3539 2.8078 28.3415C2.76406 28.298 1.62048 28.863 1.28928 29.0927L0.970577 29.31L1.25179 29.0492C1.40801 28.9064 1.78921 28.6705 2.09541 28.5215C2.40786 28.3725 2.72032 28.2049 2.78906 28.1428C2.93903 28.0186 3.43896 27.1122 3.43896 26.9694C3.43896 26.8577 3.15775 26.8639 2.68907 26.9818ZM2.54534 29.937C2.53284 30.0488 2.52035 29.9743 2.52035 29.7694C2.52035 29.5645 2.53284 29.4714 2.54534 29.5645C2.55784 29.6577 2.55784 29.8253 2.54534 29.937Z" fill="white"/>
<path d="M46.1767 32.4204C45.4706 32.8984 45.2831 33.1468 45.1394 33.7862C45.0394 34.2581 45.0644 34.4754 45.1956 34.2457C45.3393 33.9849 45.708 33.6497 45.983 33.5193C46.4454 33.302 46.6891 33.0971 46.8204 32.7991C46.9454 32.5197 46.9391 32.1472 46.8079 32.0665C46.7766 32.0479 46.4954 32.2093 46.1767 32.4204Z" fill="white"/>
<path d="M3.12695 32.2962C3.12695 32.7681 3.52064 33.3144 4.05806 33.5876C4.28303 33.6993 4.58299 33.9849 4.77046 34.2705L4.87669 34.4195V34.1712C4.87669 33.8173 4.73296 33.3765 4.53299 33.1095C4.34552 32.8736 3.33317 32.0975 3.20819 32.0975C3.1582 32.0975 3.12695 32.1783 3.12695 32.2962Z" fill="white"/>
<path d="M46.0814 33.8918C45.9752 33.9539 45.8377 34.1153 45.7814 34.2395C45.394 35.0466 46.3438 35.7543 46.9813 35.1335C47.3125 34.8106 47.325 34.3078 47 33.9663C46.85 33.8111 46.7688 33.7738 46.5438 33.7738C46.3938 33.7738 46.1939 33.8235 46.0814 33.8918Z" fill="white"/>
<path d="M3.12483 34.0036C2.77488 34.314 2.76239 34.9659 3.09359 35.2452C3.21857 35.3508 3.3373 35.388 3.57477 35.388C3.85597 35.388 3.91222 35.3632 4.09969 35.1707C4.37465 34.8789 4.42464 34.6058 4.25591 34.2891C4.09969 33.9725 3.88722 33.8359 3.56852 33.8359C3.38104 33.8359 3.26231 33.8794 3.12483 34.0036Z" fill="white"/>
<path d="M47.7636 34.0222C47.2574 34.3264 47.3949 35.2576 47.9698 35.3632C48.4323 35.4501 48.8072 35.1148 48.8072 34.612C48.8072 34.3636 48.776 34.2891 48.5947 34.1091C48.3448 33.8607 48.0761 33.8297 47.7636 34.0222Z" fill="white"/>
<path d="M1.40075 34.2271C1.20703 34.4009 1.17578 34.463 1.17578 34.7175C1.17578 35.0838 1.25702 35.2204 1.53823 35.357C1.81319 35.4874 2.11939 35.4439 2.35686 35.2328C2.50683 35.1087 2.53183 35.0466 2.53183 34.7362C2.53183 34.4195 2.51308 34.3699 2.32561 34.2022C2.0319 33.9415 1.7007 33.9539 1.40075 34.2271Z" fill="white"/>
<path d="M4.24454 35.686C4.00082 35.9033 3.92583 36.369 4.08831 36.6794C4.21329 36.9215 4.36327 37.0022 4.66947 37.0022C5.09441 37.0022 5.37562 36.6794 5.37562 36.1889C5.37562 35.984 5.33812 35.8971 5.16315 35.7233C4.88194 35.4439 4.53199 35.4253 4.24454 35.686Z" fill="white"/>
<path d="M45.2883 35.5991C44.9696 35.7171 44.8821 35.7978 44.8009 36.0709C44.7009 36.3938 44.8196 36.7228 45.0821 36.8843C45.3195 37.027 45.4883 37.0333 45.7632 36.9029C46.3131 36.6421 46.3194 35.8288 45.7757 35.5991C45.657 35.5494 45.5507 35.5122 45.5445 35.5122C45.532 35.5184 45.4195 35.5556 45.2883 35.5991Z" fill="white"/>
<path d="M46.7754 35.7171C46.5941 35.8971 46.5566 35.9778 46.5566 36.1889C46.5566 36.6732 46.8378 37.0022 47.244 37.0022C47.6377 37.0022 47.9689 36.5552 47.9127 36.1144C47.8627 35.773 47.644 35.5681 47.2815 35.5308C47.0191 35.4998 46.9816 35.5122 46.7754 35.7171Z" fill="white"/>
<path d="M48.7119 35.5557C48.0183 35.7233 48.1183 36.9463 48.8244 36.9401C49.1931 36.9339 49.4306 36.6359 49.4306 36.1827C49.4306 35.9654 49.3931 35.8723 49.2618 35.7481C49.0681 35.5743 48.8994 35.5122 48.7119 35.5557Z" fill="white"/>
<path d="M0.863522 35.6798C0.569816 35.8599 0.469831 36.2572 0.626057 36.6297C0.769786 36.9712 1.26971 37.114 1.53842 36.8905C2.01335 36.4931 1.98211 35.8723 1.46343 35.6612C1.19472 35.5495 1.06974 35.5557 0.863522 35.6798Z" fill="white"/>
<path d="M2.48846 35.6985C2.26349 35.8723 2.16976 36.1455 2.20725 36.4869C2.30724 37.3685 3.5633 37.1823 3.5633 36.2883C3.5633 35.8537 3.30709 35.5805 2.9009 35.5743C2.73842 35.5743 2.58845 35.6178 2.48846 35.6985Z" fill="white"/>
<path d="M1.83938 37.2133C1.54568 37.3437 1.37695 37.592 1.37695 37.9149C1.37695 38.1508 1.4082 38.2253 1.58942 38.4053C1.7519 38.5668 1.85188 38.6164 2.02686 38.6164C2.48929 38.6164 2.75175 38.3557 2.75175 37.8838C2.75175 37.592 2.57053 37.3375 2.27682 37.2133C2.03311 37.114 2.07685 37.114 1.83938 37.2133Z" fill="white"/>
<path d="M3.65675 37.1885C3.40679 37.2878 3.23182 37.5486 3.20057 37.859C3.17557 38.1259 3.19432 38.188 3.35055 38.3619C3.66925 38.7157 4.28166 38.7095 4.50038 38.3495C4.88782 37.7286 4.30041 36.9215 3.65675 37.1885Z" fill="white"/>
<path d="M45.8628 37.2257C45.5816 37.3437 45.4316 37.5982 45.4316 37.9521C45.4316 38.3557 45.6191 38.5605 46.0316 38.5978C46.3003 38.6288 46.369 38.6102 46.5377 38.4674C46.8377 38.2191 46.9064 37.9397 46.7564 37.5982C46.6752 37.4244 46.5565 37.2878 46.4377 37.2257C46.2128 37.1078 46.1503 37.1078 45.8628 37.2257Z" fill="white"/>
<path d="M47.6823 37.1698C47.4698 37.2505 47.2511 37.5237 47.2136 37.7534C47.1074 38.3619 47.7011 38.7654 48.2072 38.4364C48.5947 38.1818 48.6759 37.6976 48.3885 37.3747C48.2135 37.1823 47.8823 37.0891 47.6823 37.1698Z" fill="white"/>
<path d="M47.3253 38.8647C47.1441 38.9392 46.9316 39.2807 46.9316 39.5042C46.9316 39.9698 47.4003 40.2989 47.8315 40.1313C47.9815 40.0754 48.1752 39.7215 48.1877 39.4856C48.2065 39.1938 48.0877 38.9951 47.8378 38.8896C47.594 38.7902 47.5191 38.7902 47.3253 38.8647Z" fill="white"/>
<path d="M1.93925 39.0386C1.43308 39.5477 2.04549 40.4665 2.67664 40.1437C2.92036 40.0195 3.06409 39.7526 3.06409 39.4359C3.06409 39.0634 2.90786 38.9144 2.48292 38.8772C2.15797 38.8523 2.12048 38.8648 1.93925 39.0386Z" fill="white"/>
<path d="M3.63122 39.0448C3.46875 39.1938 3.4375 39.2683 3.4375 39.5104C3.4375 39.7339 3.47499 39.8333 3.61872 39.9947C3.77495 40.1685 3.84369 40.1996 4.09365 40.1996C4.34361 40.1996 4.41235 40.1685 4.56858 39.9947C4.86229 39.6718 4.79355 39.2124 4.42485 38.9889C4.1249 38.8089 3.86244 38.8275 3.63122 39.0448Z" fill="white"/>
<path d="M45.5635 38.9455C45.476 38.9827 45.351 39.1131 45.2886 39.2248C44.9636 39.7712 45.6323 40.4541 46.1759 40.1313C46.4946 39.945 46.6509 39.467 46.4946 39.169C46.3509 38.9082 45.8697 38.7902 45.5635 38.9455Z" fill="white"/>
<path d="M3.16427 40.5472C2.76433 40.659 2.56436 41.0129 2.68934 41.3854C2.9518 42.1614 4.05164 41.8758 3.9204 41.0625C3.85791 40.6714 3.52671 40.4479 3.16427 40.5472Z" fill="white"/>
<path d="M46.3572 40.6466C45.8323 40.9694 46.0385 41.8448 46.6384 41.8448C47.2696 41.8448 47.5383 40.9135 46.9884 40.6341C46.7634 40.5162 46.5635 40.5224 46.3572 40.6466Z" fill="white"/>
<path d="M10.375 63.8102C10.375 64.0896 10.3937 64.1206 10.6062 64.2634C10.8062 64.3938 10.8874 64.5242 11.1874 65.2195C11.9748 67.0324 12.8934 69.0998 13.1121 69.5344L13.3433 70H13.6745H14.0057L14.2557 69.3792C14.3869 69.0377 14.6431 68.3796 14.8181 67.9202C15.493 66.1384 16.1679 64.5242 16.2991 64.3627C16.3554 64.3069 16.5053 64.2386 16.6366 64.22L16.874 64.1765V63.8475V63.5122H15.8117H14.7493V63.8412C14.7493 64.1703 14.7493 64.1703 14.9806 64.2324C15.1243 64.2634 15.2243 64.3317 15.2368 64.4C15.2493 64.4559 14.9931 65.2257 14.6681 66.1073C14.3432 66.9827 14.0557 67.765 14.037 67.8395C13.9807 68.0071 13.8995 68.0257 13.8557 67.8705C13.837 67.8146 13.6495 67.3428 13.437 66.8337C12.8121 65.3126 12.6059 64.7353 12.5997 64.5055C12.5934 64.3007 12.6059 64.2882 12.7996 64.2696L13.0059 64.251L12.9871 63.8971L12.9684 63.5432L11.6748 63.5246L10.375 63.5122V63.8102Z" fill="white"/>
<path d="M17.4355 63.8661C17.4355 64.2138 17.4418 64.2262 17.6043 64.2386C17.9292 64.2572 17.9355 64.282 17.9355 66.7654C17.9355 68.0319 17.9105 69.106 17.8792 69.1495C17.848 69.1991 17.7355 69.255 17.623 69.2798C17.4293 69.3171 17.423 69.3295 17.4105 69.6461L17.4043 69.969H18.6729H19.9352V69.6275C19.9352 69.2985 19.9289 69.286 19.7664 69.286C19.329 69.2798 19.3103 69.1867 19.3103 66.6909C19.3103 64.3007 19.3103 64.282 19.704 64.2448C19.9039 64.2262 19.9039 64.22 19.9227 63.8661L19.9414 63.5122H18.6854H17.4355V63.8661Z" fill="white"/>
<path d="M20.8105 63.8537V64.1951L21.0605 64.2324C21.2167 64.2572 21.3417 64.3193 21.3792 64.3876C21.448 64.5242 21.4292 69.1246 21.3605 69.1991C21.3355 69.224 21.2105 69.2612 21.0855 69.2798C20.9605 69.2985 20.8605 69.3357 20.8668 69.3605C20.8668 69.3916 20.873 69.5344 20.873 69.6896V69.969H21.9041H22.9352V69.6337V69.2922L22.6728 69.2736C22.2603 69.2426 22.2478 69.1867 22.2478 67.4049C22.2478 66.5605 22.2666 65.8714 22.2978 65.8714C22.3228 65.8714 22.4853 66.0577 22.654 66.2874C22.829 66.5171 23.2852 67.0945 23.6726 67.5725C24.0663 68.0568 24.6537 68.7894 24.9849 69.2053L25.5911 69.9628H26.041L26.491 69.969L26.5097 67.2186C26.5284 64.1951 26.5159 64.2945 26.9096 64.22C27.1221 64.1827 27.1221 64.1765 27.1221 63.8475V63.5122H26.091H25.0599V63.8537C25.0599 64.0399 25.0787 64.2013 25.1099 64.2013C25.1349 64.2075 25.2161 64.22 25.2911 64.2262C25.6223 64.2572 25.6223 64.2634 25.6223 66.1011V67.8084L24.9599 66.9765C24.5975 66.5233 23.9351 65.6789 23.4851 65.1078C23.0352 64.5366 22.554 63.9406 22.4228 63.7916L22.1728 63.5122H21.4917H20.8105V63.8537Z" fill="white"/>
<path d="M29.8649 63.6798C29.7336 64.0337 28.8463 66.3743 28.4026 67.5477C27.7589 69.2736 27.7902 69.2115 27.5464 69.2736C27.3527 69.3233 27.3402 69.3419 27.3215 69.6461L27.3027 69.969H28.2401H29.1837V69.6275C29.1837 69.2922 29.1775 69.286 29.0025 69.286C28.6588 69.286 28.6525 69.1805 28.9712 68.3051L29.0712 68.0444L30.0398 68.0568L31.0084 68.0754L31.1709 68.5845C31.3459 69.1619 31.3271 69.286 31.0584 69.286C30.871 69.286 30.871 69.286 30.871 69.6275V69.969H32.0583H33.2456V69.6337C33.2456 69.3109 33.2393 69.2922 33.0769 69.2736C32.9206 69.255 32.8832 69.1929 32.6019 68.4479C32.4395 68.0009 32.0958 67.1069 31.8396 66.4612C31.5833 65.8093 31.2209 64.8905 31.0334 64.4124L30.7022 63.5432L30.3148 63.5246C29.9461 63.506 29.9273 63.5122 29.8649 63.6798ZM30.471 66.5357L30.7335 67.3614H30.0523C29.5774 67.3614 29.3712 67.3428 29.3712 67.2869C29.3712 67.2497 29.5212 66.7903 29.7024 66.2625L30.0273 65.3126L30.1148 65.5113C30.1648 65.6231 30.321 66.0887 30.471 66.5357Z" fill="white"/>
<path d="M33.8086 63.8537C33.8086 64.1889 33.8086 64.1889 34.0273 64.2324C34.1523 64.251 34.2773 64.3255 34.3148 64.3876C34.3523 64.4621 34.371 65.3437 34.3585 66.8089C34.3398 69.0067 34.3335 69.1122 34.221 69.1991C34.1523 69.2488 34.0336 69.286 33.9523 69.286C33.8211 69.286 33.8086 69.3109 33.8086 69.6275V69.969H35.1584H36.5082L36.4707 69.733C36.452 69.6089 36.4395 69.4537 36.4332 69.3916C36.4332 69.3109 36.377 69.286 36.1957 69.286C36.0645 69.286 35.927 69.255 35.8833 69.2115C35.8333 69.1619 35.8083 68.8577 35.8083 68.2616V67.3801L36.0145 67.4111C36.2895 67.4483 36.3207 67.4856 36.6582 68.063C36.8206 68.3424 37.1643 68.8887 37.4143 69.2674L37.8642 69.969H38.6204H39.3703V69.6275C39.3703 69.3295 39.3515 69.286 39.2515 69.286C39.0516 69.286 38.7766 69.0067 38.3642 68.3672C38.1517 68.0381 37.883 67.6532 37.7705 67.5104L37.5643 67.2621L37.8892 67.1007C38.3767 66.8648 38.6141 66.635 38.8141 66.2129C39.0203 65.7845 39.0516 65.3126 38.9078 64.7725C38.7891 64.3193 38.5454 64.0399 38.0955 63.8226C37.5705 63.5681 37.0894 63.5122 35.3271 63.5122H33.8086V63.8537ZM37.0331 64.4186C37.3831 64.5987 37.558 64.965 37.558 65.5237C37.558 66.0514 37.4081 66.3929 37.0831 66.6102C36.9019 66.7344 36.7582 66.7716 36.3332 66.7903L35.8083 66.8213V65.5734V64.3255L35.9833 64.3007C36.3145 64.2448 36.7894 64.3007 37.0331 64.4186Z" fill="white"/>
<path d="M39.9961 63.8475V64.1827L40.2523 64.2262C40.4398 64.2572 40.521 64.3069 40.5648 64.4248C40.596 64.5055 40.621 65.5361 40.621 66.7157C40.621 69.1743 40.6023 69.286 40.2211 69.286H39.9961V69.6275V69.969H41.3459H42.7019L42.6582 69.7765C42.6394 69.671 42.6207 69.5157 42.6207 69.4412C42.6207 69.3233 42.577 69.2985 42.3645 69.2674C42.2208 69.2488 42.077 69.1991 42.052 69.1495C41.9708 69.0315 41.9833 64.5242 42.0583 64.3752C42.102 64.3069 42.2208 64.2448 42.3707 64.22L42.6207 64.1765V63.8475V63.5122H41.3084H39.9961V63.8475Z" fill="white"/>
</svg>
